<svg version="1.1" xmlns="http://www.w3.org/2000/svg" style="display: block;" viewBox="0 0 2048 2048" width="1024" height="1024" preserveAspectRatio="none">
<defs>
	<linearGradient id="Gradient1" gradientUnits="userSpaceOnUse" x1="944.356" y1="1440.34" x2="940.686" y2="1303.27">
		<stop class="stop0" offset="0" stop-opacity="1" stop-color="rgb(2,51,139)"/>
		<stop class="stop1" offset="1" stop-opacity="1" stop-color="rgb(5,90,184)"/>
	</linearGradient>
	<linearGradient id="Gradient2" gradientUnits="userSpaceOnUse" x1="1492.17" y1="1243.17" x2="1479.75" y2="1101.39">
		<stop class="stop0" offset="0" stop-opacity="1" stop-color="rgb(3,68,164)"/>
		<stop class="stop1" offset="1" stop-opacity="1" stop-color="rgb(3,91,195)"/>
	</linearGradient>
	<linearGradient id="Gradient3" gradientUnits="userSpaceOnUse" x1="1096.54" y1="1444.5" x2="1086.33" y2="1300.51">
		<stop class="stop0" offset="0" stop-opacity="1" stop-color="rgb(2,50,139)"/>
		<stop class="stop1" offset="1" stop-opacity="1" stop-color="rgb(3,99,195)"/>
	</linearGradient>
	<linearGradient id="Gradient4" gradientUnits="userSpaceOnUse" x1="490.043" y1="1446.49" x2="474.304" y2="1298.58">
		<stop class="stop0" offset="0" stop-opacity="1" stop-color="rgb(2,57,145)"/>
		<stop class="stop1" offset="1" stop-opacity="1" stop-color="rgb(5,106,203)"/>
	</linearGradient>
	<linearGradient id="Gradient5" gradientUnits="userSpaceOnUse" x1="1432.39" y1="1441.18" x2="1431.59" y2="1304.77">
		<stop class="stop0" offset="0" stop-opacity="1" stop-color="rgb(2,54,142)"/>
		<stop class="stop1" offset="1" stop-opacity="1" stop-color="rgb(3,102,199)"/>
	</linearGradient>
	<linearGradient id="Gradient6" gradientUnits="userSpaceOnUse" x1="1274.13" y1="874.205" x2="1321.74" y2="888.349">
		<stop class="stop0" offset="0" stop-opacity="1" stop-color="rgb(118,159,203)"/>
		<stop class="stop1" offset="1" stop-opacity="1" stop-color="rgb(182,202,221)"/>
	</linearGradient>
	<linearGradient id="Gradient7" gradientUnits="userSpaceOnUse" x1="1275.11" y1="774.421" x2="1168.01" y2="799.166">
		<stop class="stop0" offset="0" stop-opacity="1" stop-color="rgb(4,101,196)"/>
		<stop class="stop1" offset="1" stop-opacity="1" stop-color="rgb(7,145,225)"/>
	</linearGradient>
	<linearGradient id="Gradient8" gradientUnits="userSpaceOnUse" x1="1473.4" y1="665.54" x2="1242.65" y2="692.818">
		<stop class="stop0" offset="0" stop-opacity="1" stop-color="rgb(0,21,107)"/>
		<stop class="stop1" offset="1" stop-opacity="1" stop-color="rgb(4,104,201)"/>
	</linearGradient>
	<linearGradient id="Gradient9" gradientUnits="userSpaceOnUse" x1="1332.44" y1="397.19" x2="1028.97" y2="372.006">
		<stop class="stop0" offset="0" stop-opacity="1" stop-color="rgb(3,74,174)"/>
		<stop class="stop1" offset="1" stop-opacity="1" stop-color="rgb(6,170,239)"/>
	</linearGradient>
	<linearGradient id="Gradient10" gradientUnits="userSpaceOnUse" x1="1016.37" y1="650.356" x2="1005.36" y2="414.149">
		<stop class="stop0" offset="0" stop-opacity="1" stop-color="rgb(254,60,0)"/>
		<stop class="stop1" offset="1" stop-opacity="1" stop-color="rgb(254,101,0)"/>
	</linearGradient>
	<linearGradient id="Gradient11" gradientUnits="userSpaceOnUse" x1="1031.69" y1="379.744" x2="656.581" y2="404.544">
		<stop class="stop0" offset="0" stop-opacity="1" stop-color="rgb(2,43,143)"/>
		<stop class="stop1" offset="1" stop-opacity="1" stop-color="rgb(5,162,242)"/>
	</linearGradient>
	<linearGradient id="Gradient12" gradientUnits="userSpaceOnUse" x1="870.332" y1="963.919" x2="822.32" y2="1010.48">
		<stop class="stop0" offset="0" stop-opacity="1" stop-color="rgb(113,150,198)"/>
		<stop class="stop1" offset="1" stop-opacity="1" stop-color="rgb(182,202,224)"/>
	</linearGradient>
	<linearGradient id="Gradient13" gradientUnits="userSpaceOnUse" x1="961.49" y1="849.595" x2="750.288" y2="837.836">
		<stop class="stop0" offset="0" stop-opacity="1" stop-color="rgb(1,37,129)"/>
		<stop class="stop1" offset="1" stop-opacity="1" stop-color="rgb(5,100,197)"/>
	</linearGradient>
	<linearGradient id="Gradient14" gradientUnits="userSpaceOnUse" x1="1753.63" y1="1642.59" x2="1761.37" y2="1651.42">
		<stop class="stop0" offset="0" stop-opacity="1" stop-color="rgb(57,150,215)"/>
		<stop class="stop1" offset="1" stop-opacity="1" stop-color="rgb(85,176,227)"/>
	</linearGradient>
	<linearGradient id="Gradient15" gradientUnits="userSpaceOnUse" x1="1992.93" y1="887.782" x2="1740.43" y2="954.965">
		<stop class="stop0" offset="0" stop-opacity="1" stop-color="rgb(3,32,106)"/>
		<stop class="stop1" offset="1" stop-opacity="1" stop-color="rgb(6,83,167)"/>
	</linearGradient>
	<linearGradient id="Gradient16" gradientUnits="userSpaceOnUse" x1="1559.01" y1="1297.39" x2="1821.73" y2="1387.78">
		<stop class="stop0" offset="0" stop-opacity="1" stop-color="rgb(240,236,211)"/>
		<stop class="stop1" offset="1" stop-opacity="1" stop-color="rgb(255,255,255)"/>
	</linearGradient>
	<linearGradient id="Gradient17" gradientUnits="userSpaceOnUse" x1="1509.68" y1="1223.87" x2="130.696" y2="634.077">
		<stop class="stop0" offset="0" stop-opacity="1" stop-color="rgb(6,53,144)"/>
		<stop class="stop1" offset="1" stop-opacity="1" stop-color="rgb(4,104,201)"/>
	</linearGradient>
	<linearGradient id="Gradient18" gradientUnits="userSpaceOnUse" x1="447.434" y1="1629.75" x2="469.84" y2="1608.93">
		<stop class="stop0" offset="0" stop-opacity="1" stop-color="rgb(94,220,243)"/>
		<stop class="stop1" offset="1" stop-opacity="1" stop-color="rgb(185,234,254)"/>
	</linearGradient>
	<linearGradient id="Gradient19" gradientUnits="userSpaceOnUse" x1="456.554" y1="1652.02" x2="469.547" y2="1638.88">
		<stop class="stop0" offset="0" stop-opacity="1" stop-color="rgb(11,125,222)"/>
		<stop class="stop1" offset="1" stop-opacity="1" stop-color="rgb(34,149,230)"/>
	</linearGradient>
	<linearGradient id="Gradient20" gradientUnits="userSpaceOnUse" x1="192.177" y1="1098.32" x2="296.208" y2="1093.21">
		<stop class="stop0" offset="0" stop-opacity="1" stop-color="rgb(15,116,196)"/>
		<stop class="stop1" offset="1" stop-opacity="1" stop-color="rgb(77,179,236)"/>
	</linearGradient>
	<linearGradient id="Gradient21" gradientUnits="userSpaceOnUse" x1="744.287" y1="1927.22" x2="960.916" y2="469.106">
		<stop class="stop0" offset="0" stop-opacity="1" stop-color="rgb(2,47,138)"/>
		<stop class="stop1" offset="1" stop-opacity="1" stop-color="rgb(16,109,180)"/>
	</linearGradient>
	<clipPath id="circle-clip"><circle cx="1024" cy="1024" r="1024" /></clipPath>
</defs>
<g clip-path="url(#circle-clip)">
<path transform="translate(0,0)" fill="rgb(245,247,249)" d="M 0 0 L 2048 0 L 2048 2048 L 0 2048 L 0 0 z"/>
<path transform="translate(0,0)" fill="rgb(245,247,249)" d="M 1169.78 1988.44 C 1165.75 1989.78 1154.27 1991.2 1149.7 1991.83 C 1053.82 2004.96 955.029 2003.28 859.543 1986.91 C 648.157 1948.87 455.221 1842.16 310.645 1683.33 C 131.9 1488.05 39.1465 1229.13 53.2429 964.773 C 68.0637 703.596 184.201 458.507 376.951 281.642 C 565.945 110.754 814.728 21.3311 1069.27 32.7949 C 1258.42 42.4808 1440.64 107.173 1593.56 218.934 C 1615.13 234.699 1663.99 272.851 1681.43 292.158 C 1709.51 316.377 1738.12 349.579 1762.43 377.796 C 1767.68 383.892 1783.66 403.17 1787.8 409.783 C 1791.9 413.925 1799.61 424.974 1803.31 430.039 C 1819.17 451.839 1834.12 474.286 1848.13 497.321 C 1946.54 657.745 1997.52 842.757 1995.16 1030.95 C 1993.74 1163.48 1965.17 1294.31 1911.2 1415.36 C 1904.6 1430.35 1885.1 1472.9 1876.31 1486.01 C 1862.55 1515.32 1828.11 1570.15 1807.49 1595.39 C 1798.63 1611.9 1765.28 1649.79 1751.51 1665 C 1746.62 1670.43 1740.59 1677.54 1735.54 1682.6 C 1729.27 1690.58 1706.78 1714.88 1697.15 1715.83 C 1681.16 1732.03 1602.18 1805.39 1586.04 1807.31 C 1540.56 1843.76 1491.25 1875.15 1438.97 1900.92 C 1424.45 1908.24 1405.39 1917.77 1390.17 1923.46 C 1357.34 1937.67 1323.72 1950 1289.49 1960.4 C 1278.53 1963.82 1251.81 1971.79 1240.29 1973.37 C 1228.79 1977.43 1182.27 1987.11 1169.78 1988.44 z"/>
<path transform="translate(0,0)" fill="url(#Gradient21)" d="M 414.436 387.58 L 417.293 390.224 C 315.349 520.759 260.034 651.361 231.069 814.702 C 227.691 840.359 224.178 863.933 222.337 889.766 C 213.972 1017.09 230.229 1144.83 270.218 1265.99 C 279.522 1294.58 298.205 1346.13 311.856 1372.82 C 309.701 1376.6 310.426 1377.72 311 1382.33 L 310.2 1383.46 C 308.307 1386.17 306.962 1387.46 306.621 1390.69 C 311.281 1405.83 320.402 1423.34 326.814 1437.85 C 330.745 1446.74 334.304 1455.45 338.514 1464.23 C 342.702 1472.96 353.248 1486.47 355.622 1494.98 C 360.719 1499.61 369.859 1514.1 375.437 1520.3 C 398.935 1546.41 417.502 1583.43 440.847 1608.33 C 439.724 1599.23 397.188 1542.19 396.862 1533.75 C 399.524 1534.9 401.9 1535.82 404.619 1536.84 C 406.95 1540.33 413.705 1552.29 415.366 1554.03 C 422.374 1566.4 468.768 1643.17 476.248 1648.12 C 480.544 1649.97 480.671 1652.96 482.06 1653.8 C 495.296 1661.81 507.515 1654.96 518.878 1668.06 L 520.046 1669.42 L 521.304 1668.45 C 521.22 1661.1 519.154 1663.93 515.822 1657 C 515.781 1656.92 515.975 1649.36 515.995 1648.64 C 514.645 1646.91 514.549 1646.86 513.471 1644.95 C 516.054 1646.45 517.037 1646.9 520.03 1647.71 C 523.039 1649.92 589.067 1702.63 588.203 1701.34 C 595.464 1705.39 605.432 1712.84 612.934 1717.46 C 628.157 1726.84 643.562 1736.69 659.085 1745.55 C 725.048 1782.54 796.202 1809.39 870.156 1825.21 C 942.82 1840.73 1017.32 1845.81 1091.42 1840.3 C 1221.53 1830.75 1366.19 1783.86 1479.18 1719.11 C 1495.82 1709.57 1513.54 1697.67 1529.67 1687.05 C 1530.99 1690.6 1531.72 1691.96 1531.92 1695.81 C 1502.08 1724.37 1458.42 1753.57 1423.31 1775.49 C 1284.57 1863.35 1127.15 1917.41 963.713 1933.33 C 896.778 1939.95 841.281 1939.87 774.556 1933.7 C 772.282 1932.6 751.377 1930.31 746.643 1929.39 C 714.299 1923.11 684.51 1918.55 654.086 1905.16 C 489.581 1831.17 351.709 1708.54 259.053 1553.78 C 217.603 1485.71 186.949 1416.19 164.467 1339.81 C 161.202 1328.72 158.321 1317.52 155.828 1306.22 C 154.323 1299.62 152.676 1289.93 150.114 1283.91 C 147.812 1269.05 145.278 1254.22 142.515 1239.44 C 133.361 1188.69 130.871 1131.04 131.255 1079.55 C 133.095 832.53 237.384 561.831 414.436 387.58 z"/>
<path transform="translate(0,0)" fill="url(#Gradient20)" d="M 222.588 1262.39 C 210.925 1252 207.552 1196.61 203.575 1180.98 C 192.849 1138.84 192.831 1096.55 189.889 1053.42 C 188.962 1039.83 195.999 1020.46 191.721 1006.74 C 182.132 978.083 188.689 950.527 191.836 922.036 C 194.882 894.467 204.408 878.727 213.201 853.153 C 219.583 834.59 220.89 812.958 227.981 794.229 C 229.389 790.51 237.317 766.797 238.766 765.731 C 237.616 775.772 228.391 809.467 231.069 814.702 C 227.691 840.359 224.178 863.933 222.337 889.766 C 213.972 1017.09 230.229 1144.83 270.218 1265.99 C 279.522 1294.58 298.205 1346.13 311.856 1372.82 C 309.701 1376.6 310.426 1377.72 311 1382.33 L 310.2 1383.46 C 308.307 1386.17 306.962 1387.46 306.621 1390.69 C 311.281 1405.83 320.402 1423.34 326.814 1437.85 C 330.745 1446.74 334.304 1455.45 338.514 1464.23 C 342.702 1472.96 353.248 1486.47 355.622 1494.98 C 351.876 1491.73 334.381 1466.95 330.366 1461.7 C 328.043 1458.87 323.595 1445.81 321.445 1441.64 C 309.48 1418.41 295.876 1392.32 288.631 1367.09 L 288.296 1365.88 L 287.74 1366.24 C 288.114 1369.01 288.391 1369.81 289.656 1372.3 L 287.869 1372.12 C 286.275 1369.05 286.245 1368.57 283.712 1366.13 C 280.971 1365.41 282.014 1365.31 279.483 1366.03 C 282.883 1370.47 292.598 1382.73 292.653 1387.89 L 292.714 1401.2 C 293.809 1403.67 295.439 1404.69 297.524 1406.45 L 298.703 1406.25 C 298.58 1403.93 298.382 1403.5 298.769 1401.26 C 300.909 1410.25 297.345 1414.51 303.305 1422.33 L 302.794 1424.55 C 293.689 1418.19 245.621 1318.06 239.7 1303.24 C 236.636 1295.57 230.747 1277.52 227.34 1268.87 C 226.048 1265.6 225.231 1263.92 222.588 1262.39 z"/>
<path transform="translate(0,0)" fill="url(#Gradient19)" d="M 330.366 1461.7 C 334.381 1466.95 351.876 1491.73 355.622 1494.98 C 360.719 1499.61 369.859 1514.1 375.437 1520.3 C 398.935 1546.41 417.502 1583.43 440.847 1608.33 C 439.724 1599.23 397.188 1542.19 396.862 1533.75 C 399.524 1534.9 401.9 1535.82 404.619 1536.84 C 406.95 1540.33 413.705 1552.29 415.366 1554.03 C 422.374 1566.4 468.768 1643.17 476.248 1648.12 C 489.329 1667.47 503.95 1685.73 519.968 1702.73 L 515.131 1704.23 C 518.745 1708.47 526.633 1718.1 528.351 1723.11 L 527.194 1723.1 C 517.292 1710.67 499.923 1698.71 486.434 1684.33 C 460.303 1656.46 428.493 1622.49 407.981 1589.94 C 402.118 1580.63 410.421 1570.32 393.281 1558.97 C 386.198 1554.28 370.24 1525.39 364.702 1517.26 C 356.897 1506.01 332.953 1474.49 330.366 1461.7 z"/>
<path transform="translate(0,0)" fill="url(#Gradient18)" d="M 440.847 1608.33 C 439.724 1599.23 397.188 1542.19 396.862 1533.75 C 399.524 1534.9 401.9 1535.82 404.619 1536.84 C 406.95 1540.33 413.705 1552.29 415.366 1554.03 C 422.374 1566.4 468.768 1643.17 476.248 1648.12 C 489.329 1667.47 503.95 1685.73 519.968 1702.73 L 515.131 1704.23 C 504.252 1692.38 443.632 1620.52 440.847 1608.33 z"/>
<path transform="translate(0,0)" fill="rgb(65,135,215)" d="M 222.588 1262.39 C 225.231 1263.92 226.048 1265.6 227.34 1268.87 C 230.747 1277.52 236.636 1295.57 239.7 1303.24 C 245.621 1318.06 293.689 1418.19 302.794 1424.55 L 303.305 1422.33 C 297.345 1414.51 300.909 1410.25 298.769 1401.26 C 298.382 1403.5 298.58 1403.93 298.703 1406.25 L 297.524 1406.45 C 295.439 1404.69 293.809 1403.67 292.714 1401.2 L 292.653 1387.89 C 292.598 1382.73 282.883 1370.47 279.483 1366.03 C 282.014 1365.31 280.971 1365.41 283.712 1366.13 C 286.245 1368.57 286.275 1369.05 287.869 1372.12 L 289.656 1372.3 C 288.391 1369.81 288.114 1369.01 287.74 1366.24 L 288.296 1365.88 L 288.631 1367.09 C 295.876 1392.32 309.48 1418.41 321.445 1441.64 C 323.595 1445.81 328.043 1458.87 330.366 1461.7 C 332.953 1474.49 356.897 1506.01 364.702 1517.26 C 370.24 1525.39 386.198 1554.28 393.281 1558.97 C 410.421 1570.32 402.118 1580.63 407.981 1589.94 C 428.493 1622.49 460.303 1656.46 486.434 1684.33 C 499.923 1698.71 517.292 1710.67 527.194 1723.1 C 516.129 1717.23 470.504 1670.7 459.932 1658.05 C 455.02 1652.75 450.774 1646.38 445.597 1641.38 C 443.698 1639.55 438.573 1640.04 435.523 1637.56 L 435.563 1636.41 C 438.614 1636.8 438.403 1637.1 441.207 1636.41 C 434.764 1626.77 422.373 1613.38 414.822 1603.08 C 389.897 1569.09 363.971 1536.49 341.987 1500.34 C 339.126 1495.05 333.436 1492.24 330.744 1486.96 C 294.139 1415.14 243.356 1341.35 222.588 1262.39 z"/>
<path transform="translate(0,0)" fill="rgb(11,117,208)" d="M 476.248 1648.12 C 480.544 1649.97 480.671 1652.96 482.06 1653.8 C 495.296 1661.81 507.515 1654.96 518.878 1668.06 L 520.046 1669.42 L 521.304 1668.45 C 521.22 1661.1 519.154 1663.93 515.822 1657 C 515.781 1656.92 515.975 1649.36 515.995 1648.64 C 514.645 1646.91 514.549 1646.86 513.471 1644.95 C 516.054 1646.45 517.037 1646.9 520.03 1647.71 C 523.039 1649.92 589.067 1702.63 588.203 1701.34 L 586.856 1702.04 C 580.067 1697.33 554.337 1676.62 549.703 1674.67 C 549.022 1681.42 559.895 1702.15 556.025 1709.75 C 552.835 1711.01 551.774 1710.36 548.147 1708.66 C 540.79 1705.23 533.067 1702.45 525.744 1699.12 C 523.296 1699.32 522.859 1699.32 520.448 1699.82 L 520.413 1700.58 C 532.114 1713.4 557.333 1737.42 571.296 1749.88 C 571.283 1750.35 571.27 1750.82 571.256 1751.29 C 562.483 1746.46 527.95 1711.5 519.968 1702.73 C 503.95 1685.73 489.329 1667.47 476.248 1648.12 z"/>
<path transform="translate(0,0)" fill="rgb(39,170,242)" d="M 519.968 1702.73 C 527.95 1711.5 562.483 1746.46 571.256 1751.29 C 590.501 1767.99 603.78 1777.5 623.614 1792.77 C 618.583 1794.5 616.338 1790.5 609.396 1787.69 L 608.492 1787.34 C 603.345 1782.26 597.548 1779.33 591.147 1776.08 C 586.145 1772.65 582.29 1770.13 577.787 1766.04 C 570.741 1761.67 553.166 1746.77 547.237 1740.85 C 540.996 1735.19 534.109 1729.19 528.351 1723.11 C 526.633 1718.1 518.745 1708.47 515.131 1704.23 L 519.968 1702.73 z"/>
<path transform="translate(0,0)" fill="rgb(65,135,215)" d="M 547.237 1740.85 C 550.264 1739.82 550.384 1739.07 553.342 1740.92 C 561.924 1746.28 570.594 1757.72 577.83 1763.14 C 578.429 1765.15 578.48 1764.18 577.787 1766.04 C 570.741 1761.67 553.166 1746.77 547.237 1740.85 z"/>
<path transform="translate(0,0)" fill="rgb(11,117,208)" d="M 591.147 1776.08 C 597.548 1779.33 603.345 1782.26 608.492 1787.34 L 609.396 1787.69 C 616.338 1790.5 618.583 1794.5 623.614 1792.77 C 633.151 1798.65 641.563 1805.54 650.724 1811.54 C 659.154 1816.47 668.913 1823.51 677.817 1828.96 C 692.073 1837.69 712.642 1848.34 725.576 1858.34 C 702.708 1851.44 603.953 1796.56 591.147 1776.08 z"/>
<path transform="translate(0,0)" fill="rgb(65,135,215)" d="M 608.492 1787.34 L 609.396 1787.69 C 616.338 1790.5 618.583 1794.5 623.614 1792.77 C 633.151 1798.65 641.563 1805.54 650.724 1811.54 L 647.798 1811.35 C 645.935 1812.99 646.69 1812.59 644.139 1813.09 C 635.556 1808.29 613.262 1795.62 608.492 1787.34 z"/>
<path transform="translate(0,0)" fill="rgb(15,54,135)" d="M 465.537 1689.53 C 478.811 1694.1 482.109 1701.32 492.135 1711.63 C 483.951 1713.02 470.985 1694.99 465.537 1689.53 z"/>
<path transform="translate(0,0)" fill="url(#Gradient17)" d="M 1169.78 1988.44 C 1165.75 1989.78 1154.27 1991.2 1149.7 1991.83 C 1053.82 2004.96 955.029 2003.28 859.543 1986.91 C 648.157 1948.87 455.221 1842.16 310.645 1683.33 C 131.9 1488.05 39.1465 1229.13 53.2429 964.773 C 68.0637 703.596 184.201 458.507 376.951 281.642 C 565.945 110.754 814.728 21.3311 1069.27 32.7949 C 1258.42 42.4808 1440.64 107.173 1593.56 218.934 C 1615.13 234.699 1663.99 272.851 1681.43 292.158 C 1709.51 316.377 1738.12 349.579 1762.43 377.796 C 1767.68 383.892 1783.66 403.17 1787.8 409.783 C 1783.39 408.072 1781.27 404.519 1777.74 400.802 C 1772.4 410.622 1782.03 414.726 1770.11 423.05 L 1768.9 425.858 C 1771.8 430.293 1774.16 433.741 1777.35 437.996 L 1776.78 439.509 C 1770.77 432.979 1762.13 421.443 1756.27 414.229 C 1746 401.728 1735.46 389.449 1724.66 377.402 C 1707.26 358.093 1688.25 341.612 1671.66 323.577 C 1658.55 313.076 1644.75 299.275 1630.74 288.064 C 1599.41 262.995 1566.33 237.984 1532.15 216.921 C 1420.41 147.451 1295.47 101.913 1165.23 83.1857 C 1135.22 79.0072 1104.76 75.7977 1074.42 75.8525 C 1029.97 76.3055 985.715 81.7334 942.477 92.0349 C 671.956 136.775 465.049 273.819 309.729 496.776 C 206.863 644.436 138.667 820.665 125.581 1000.29 C 120.763 1071.4 124.104 1142.84 135.537 1213.19 C 137.006 1222 138.586 1230.8 140.277 1239.57 L 142.515 1239.44 C 145.278 1254.22 147.812 1269.05 150.114 1283.91 C 152.676 1289.93 154.323 1299.62 155.828 1306.22 C 158.321 1317.52 161.202 1328.72 164.467 1339.81 C 186.949 1416.19 217.603 1485.71 259.053 1553.78 C 351.709 1708.54 489.581 1831.17 654.086 1905.16 C 684.51 1918.55 714.299 1923.11 746.643 1929.39 C 751.377 1930.31 772.282 1932.6 774.556 1933.7 C 777.661 1937.59 800.156 1941.91 806.033 1942.97 C 814.017 1948.19 841.804 1954.52 852.963 1957.4 C 931.707 1977.21 1012.72 1986.54 1093.91 1985.16 C 1114.49 1984.71 1135 1981.82 1155.32 1981.01 C 1164.39 1983.8 1175.76 1978.57 1185.83 1980.6 L 1186.47 1982.84 C 1177.94 1988.02 1177.36 1982.91 1169.78 1988.44 z"/>
<path transform="translate(0,0)" fill="rgb(15,54,135)" d="M 1671.66 323.577 L 1672.26 322.047 C 1677.22 325.475 1685.3 334.415 1690.12 339.2 C 1701.59 350.588 1712.78 361.818 1723.77 373.653 C 1731.4 381.862 1742.7 396.393 1750.52 403.24 L 1752.34 402.575 C 1754.34 401.869 1754.62 401.707 1756.74 402.125 C 1758.72 404.601 1758.97 405.042 1760.47 407.856 L 1764.24 406.336 L 1766.09 407.2 C 1765.94 409.794 1765.78 410.081 1765.21 412.651 L 1765.85 413.647 C 1770.38 412.623 1769.6 412.083 1773.33 413.355 L 1774.52 415.02 C 1770.49 419.252 1766.45 414.297 1766.27 422.844 L 1768.9 425.858 C 1771.8 430.293 1774.16 433.741 1777.35 437.996 L 1776.78 439.509 C 1770.77 432.979 1762.13 421.443 1756.27 414.229 C 1746 401.728 1735.46 389.449 1724.66 377.402 C 1707.26 358.093 1688.25 341.612 1671.66 323.577 z"/>
<path transform="translate(0,0)" fill="rgb(15,54,135)" d="M 1681.43 292.158 C 1709.51 316.377 1738.12 349.579 1762.43 377.796 C 1767.68 383.892 1783.66 403.17 1787.8 409.783 C 1783.39 408.072 1781.27 404.519 1777.74 400.802 L 1775.21 398.967 C 1772.76 399.871 1772.89 399.708 1770.33 398.978 L 1770.18 397.141 L 1772.4 395.325 C 1771.83 391.152 1765.66 387.993 1764.98 385.938 C 1759.78 370.333 1683.13 299.208 1681.43 292.158 z"/>
<path transform="translate(0,0)" fill="rgb(128,170,204)" d="M 140.277 1239.57 L 142.515 1239.44 C 145.278 1254.22 147.812 1269.05 150.114 1283.91 C 145.72 1277.95 141.082 1248.4 140.277 1239.57 z"/>
<path transform="translate(0,0)" fill="rgb(237,77,1)" d="M 1889.08 772.832 C 1893.97 786.684 1898.92 800.474 1903.48 814.44 C 1974.33 1031.51 1951.1 1253.42 1852.79 1458.28 C 1792.15 1584.55 1707.53 1697.83 1603.65 1791.81 C 1597.8 1796.17 1591.5 1802.28 1586.04 1807.31 C 1540.56 1843.76 1491.25 1875.15 1438.97 1900.92 C 1424.45 1908.24 1405.39 1917.77 1390.17 1923.46 C 1357.34 1937.67 1323.72 1950 1289.49 1960.4 C 1278.53 1963.82 1251.81 1971.79 1240.29 1973.37 C 1228.79 1977.43 1182.27 1987.11 1169.78 1988.44 C 1177.36 1982.91 1177.94 1988.02 1186.47 1982.84 L 1185.83 1980.6 C 1175.76 1978.57 1164.39 1983.8 1155.32 1981.01 C 1135 1981.82 1114.49 1984.71 1093.91 1985.16 C 1012.72 1986.54 931.707 1977.21 852.963 1957.4 C 841.804 1954.52 814.017 1948.19 806.033 1942.97 C 823.119 1942.8 838.94 1943.91 855.924 1944.28 C 882.18 1944.9 908.45 1944.46 934.668 1942.94 C 1076.99 1933.84 1215.84 1895.13 1342.33 1829.29 C 1393.53 1802.31 1437.11 1773.72 1484.55 1741.48 C 1487.41 1737.63 1531.3 1707.04 1538.23 1701.45 C 1563.13 1681.41 1594.13 1659.38 1617.05 1637.39 L 1619.21 1638.27 L 1627.63 1628.46 C 1627.44 1628.59 1637.35 1613.83 1638.4 1612.29 C 1643.76 1604.41 1650.58 1600.06 1656.67 1593.28 C 1670.05 1578.22 1683.06 1562.84 1695.71 1547.16 C 1753.48 1475.65 1800.47 1396.08 1835.2 1310.97 C 1877.33 1207.97 1901.04 1071.82 1899.22 960.192 C 1898.5 929.832 1896.99 899.496 1894.69 869.215 C 1893.21 849.44 1890 824.187 1889.88 803.707 C 1890.74 802.172 1891.47 800.891 1892.05 799.861 C 1891.57 793.784 1889.83 784.972 1887.91 779.212 L 1889.08 772.832 z"/>
<path transform="translate(0,0)" fill="url(#Gradient16)" d="M 1892.05 799.861 C 1895.6 814.554 1897.65 829.614 1899.88 844.577 C 1931.48 1057.05 1887.82 1278.95 1777.37 1463.16 C 1704.65 1584.42 1606.97 1682.73 1492.88 1765.01 C 1455.73 1791.94 1414.39 1819.87 1374.06 1841.56 C 1373.6 1839.94 1373.63 1837.99 1373.53 1836.25 C 1408.56 1813.13 1443.79 1792.28 1477.8 1766.66 C 1481.78 1754.94 1510.62 1751.12 1495.52 1736.41 C 1493.43 1737.08 1482.4 1747.67 1480.3 1749.73 L 1479.23 1748.95 C 1481.48 1746.52 1483.65 1744.73 1484.55 1741.48 C 1487.41 1737.63 1531.3 1707.04 1538.23 1701.45 C 1563.13 1681.41 1594.13 1659.38 1617.05 1637.39 L 1619.21 1638.27 L 1627.63 1628.46 C 1627.44 1628.59 1637.35 1613.83 1638.4 1612.29 C 1643.76 1604.41 1650.58 1600.06 1656.67 1593.28 C 1670.05 1578.22 1683.06 1562.84 1695.71 1547.16 C 1753.48 1475.65 1800.47 1396.08 1835.2 1310.97 C 1877.33 1207.97 1901.04 1071.82 1899.22 960.192 C 1898.5 929.832 1896.99 899.496 1894.69 869.215 C 1893.21 849.44 1890 824.187 1889.88 803.707 C 1890.74 802.172 1891.47 800.891 1892.05 799.861 z"/>
<path transform="translate(0,0)" fill="rgb(239,164,60)" d="M 1617.05 1637.39 L 1619.21 1638.27 C 1606.74 1651.11 1596 1665.53 1583.98 1677.9 C 1561.89 1700.62 1535.23 1721.81 1510.39 1741.45 C 1500.49 1749.28 1488.24 1759.95 1477.8 1766.66 C 1481.78 1754.94 1510.62 1751.12 1495.52 1736.41 C 1493.43 1737.08 1482.4 1747.67 1480.3 1749.73 L 1479.23 1748.95 C 1481.48 1746.52 1483.65 1744.73 1484.55 1741.48 C 1487.41 1737.63 1531.3 1707.04 1538.23 1701.45 C 1563.13 1681.41 1594.13 1659.38 1617.05 1637.39 z"/>
<path transform="translate(0,0)" fill="rgb(15,54,135)" d="M 1155.32 1981.01 C 1159.14 1980.03 1164.69 1979.63 1168.73 1979.16 C 1194.12 1976.25 1219.2 1971.51 1244.38 1967.1 C 1242.83 1969.12 1241.5 1970.83 1239.79 1972.75 L 1240.29 1973.37 C 1228.79 1977.43 1182.27 1987.11 1169.78 1988.44 C 1177.36 1982.91 1177.94 1988.02 1186.47 1982.84 L 1185.83 1980.6 C 1175.76 1978.57 1164.39 1983.8 1155.32 1981.01 z"/>
<path transform="translate(0,0)" fill="rgb(29,28,71)" d="M 1244.38 1967.1 C 1266.48 1964.87 1304.71 1952.03 1326.61 1945.64 C 1337.63 1942.42 1383.73 1923.28 1390.17 1923.46 C 1357.34 1937.67 1323.72 1950 1289.49 1960.4 C 1278.53 1963.82 1251.81 1971.79 1240.29 1973.37 L 1239.79 1972.75 C 1241.5 1970.83 1242.83 1969.12 1244.38 1967.1 z"/>
<path transform="translate(0,0)" fill="rgb(239,164,60)" d="M 1360.59 1849.34 C 1349.95 1855.56 1317.57 1873.19 1306.66 1874.99 C 1307.71 1871.92 1351.17 1848.9 1358.02 1845.09 L 1360.59 1849.34 z"/>
<path transform="translate(0,0)" fill="rgb(217,196,177)" d="M 1373.53 1836.25 C 1373.63 1837.99 1373.6 1839.94 1374.06 1841.56 C 1369.32 1844.61 1365.53 1846.69 1360.59 1849.34 L 1358.02 1845.09 C 1361.9 1843.29 1369.54 1838.56 1373.53 1836.25 z"/>
<path transform="translate(0,0)" fill="url(#Gradient15)" d="M 1777.74 400.802 C 1781.27 404.519 1783.39 408.072 1787.8 409.783 C 1791.9 413.925 1799.61 424.974 1803.31 430.039 C 1819.17 451.839 1834.12 474.286 1848.13 497.321 C 1946.54 657.745 1997.52 842.757 1995.16 1030.95 C 1993.74 1163.48 1965.17 1294.31 1911.2 1415.36 C 1904.6 1430.35 1885.1 1472.9 1876.31 1486.01 L 1875.17 1485.72 L 1874.86 1484.72 C 1878.04 1479.82 1885.94 1465.8 1886.37 1460.67 L 1887.95 1461.32 L 1887.88 1462.33 L 1886.87 1460.71 C 1882.31 1460.65 1879.19 1461.51 1875.15 1459.22 C 1869.13 1460.25 1866.4 1480.43 1859.53 1483.65 C 1897.59 1405.84 1924.88 1339.14 1944.53 1253.92 C 2001.61 1016.37 1967.9 766.061 1849.99 552.08 C 1836.97 527.976 1820.85 503.168 1805.76 480.167 C 1797.31 467.279 1785.22 453.145 1777.24 440.261 L 1776.78 439.509 L 1777.35 437.996 C 1774.16 433.741 1771.8 430.293 1768.9 425.858 L 1770.11 423.05 C 1782.03 414.726 1772.4 410.622 1777.74 400.802 z"/>
<path transform="translate(0,0)" fill="rgb(128,170,204)" d="M 942.477 92.0349 C 985.715 81.7334 1029.97 76.3055 1074.42 75.8525 C 1104.76 75.7977 1135.22 79.0072 1165.23 83.1857 C 1295.47 101.913 1420.41 147.451 1532.15 216.921 C 1566.33 237.984 1599.41 262.995 1630.74 288.064 C 1644.75 299.275 1658.55 313.076 1671.66 323.577 C 1688.25 341.612 1707.26 358.093 1724.66 377.402 C 1735.46 389.449 1746 401.728 1756.27 414.229 C 1762.13 421.443 1770.77 432.979 1776.78 439.509 L 1777.24 440.261 C 1785.22 453.145 1797.31 467.279 1805.76 480.167 C 1820.85 503.168 1836.97 527.976 1849.99 552.08 C 1967.9 766.061 2001.61 1016.37 1944.53 1253.92 C 1924.88 1339.14 1897.59 1405.84 1859.53 1483.65 C 1866.4 1480.43 1869.13 1460.25 1875.15 1459.22 C 1879.19 1461.51 1882.31 1460.65 1886.87 1460.71 L 1887.88 1462.33 L 1887.95 1461.32 L 1886.37 1460.67 C 1885.94 1465.8 1878.04 1479.82 1874.86 1484.72 L 1875.17 1485.72 L 1876.31 1486.01 C 1862.55 1515.32 1828.11 1570.15 1807.49 1595.39 C 1798.63 1611.9 1765.28 1649.79 1751.51 1665 C 1746.62 1670.43 1740.59 1677.54 1735.54 1682.6 C 1729.27 1690.58 1706.78 1714.88 1697.15 1715.83 C 1681.16 1732.03 1602.18 1805.39 1586.04 1807.31 C 1591.5 1802.28 1597.8 1796.17 1603.65 1791.81 C 1604.45 1792.2 1605.49 1792.41 1606.4 1792.65 C 1613.99 1788.03 1620.24 1781.54 1627.11 1776.06 C 1651.71 1757.3 1672.36 1737.88 1692.59 1714.58 C 1705.73 1699.45 1720.26 1685.93 1733.23 1669.97 C 1762.31 1634.18 1788.76 1597.81 1813.33 1558.82 C 1924.85 1384.58 1979.24 1179.88 1968.91 973.262 C 1960.08 801.469 1905.46 635.165 1810.7 491.598 C 1803.47 480.744 1769.44 431.397 1760.75 423.509 L 1757.62 423.9 C 1754.5 420.523 1751.21 412.47 1748.36 408.587 C 1741.69 399.506 1731.63 387.089 1723.49 379.618 C 1721.86 380.233 1720.51 380.703 1718.85 381.224 C 1713.58 374.879 1714.99 370.083 1709.25 364.062 C 1683.95 337.524 1657.31 312.481 1628.93 289.27 C 1506.9 188.594 1361.23 120.661 1205.68 91.8805 C 1199.16 90.6816 1192.29 88.3029 1185.96 87.3304 C 1128.05 78.3448 1071.89 74.1583 1013.39 80.5717 C 998.527 82.2014 953.746 93.4979 942.477 92.0349 z"/>
<path transform="translate(0,0)" fill="rgb(11,117,208)" d="M 1859.53 1483.65 C 1866.4 1480.43 1869.13 1460.25 1875.15 1459.22 C 1879.19 1461.51 1882.31 1460.65 1886.87 1460.71 L 1887.88 1462.33 L 1887.95 1461.32 L 1886.37 1460.67 C 1885.94 1465.8 1878.04 1479.82 1874.86 1484.72 L 1875.17 1485.72 L 1876.31 1486.01 C 1862.55 1515.32 1828.11 1570.15 1807.49 1595.39 C 1801.76 1596.86 1783.48 1628.41 1775.67 1634.14 C 1774.85 1632.43 1775.12 1633.06 1775.09 1630.99 C 1772.48 1628.75 1774 1629.64 1769.98 1629.04 C 1773.29 1621.5 1785.58 1610.3 1787.46 1602.1 C 1797.3 1582.37 1816.7 1559.41 1828.1 1539.33 C 1838.42 1521.16 1848.63 1501.12 1859.53 1483.65 z"/>
<path transform="translate(0,0)" fill="url(#Gradient14)" d="M 1787.46 1602.1 C 1785.58 1610.3 1773.29 1621.5 1769.98 1629.04 C 1774 1629.64 1772.48 1628.75 1775.09 1630.99 C 1775.12 1633.06 1774.85 1632.43 1775.67 1634.14 C 1783.48 1628.41 1801.76 1596.86 1807.49 1595.39 C 1798.63 1611.9 1765.28 1649.79 1751.51 1665 C 1746.62 1670.43 1740.59 1677.54 1735.54 1682.6 C 1734.36 1681.06 1734.89 1680.78 1734.8 1678.01 L 1732.87 1677.19 C 1733.32 1676.21 1740.08 1667.68 1741.34 1665.94 C 1741.37 1664.89 1741.37 1662.96 1742.07 1662.09 C 1757.73 1642.74 1772 1621.46 1787.46 1602.1 z"/>
<path transform="translate(0,0)" fill="rgb(125,199,229)" d="M 1741.34 1665.94 C 1745 1662.69 1745.76 1660.14 1749.41 1658.9 C 1751.47 1661.47 1750.86 1661.25 1751.51 1665 C 1746.62 1670.43 1740.59 1677.54 1735.54 1682.6 C 1734.36 1681.06 1734.89 1680.78 1734.8 1678.01 L 1732.87 1677.19 C 1733.32 1676.21 1740.08 1667.68 1741.34 1665.94 z"/>
<path transform="translate(0,0)" fill="rgb(156,209,236)" d="M 1732.87 1677.19 L 1734.8 1678.01 C 1734.89 1680.78 1734.36 1681.06 1735.54 1682.6 C 1729.27 1690.58 1706.78 1714.88 1697.15 1715.83 C 1703.92 1705.93 1723.67 1687.58 1732.87 1677.19 z"/>
<path transform="translate(0,0)" fill="rgb(39,170,242)" d="M 419.278 1544.34 C 436.877 1565.77 455.082 1587.32 475.21 1606.45 C 484.562 1615.28 494.014 1624.01 503.563 1632.62 C 508.014 1636.6 516.341 1643.5 520.03 1647.71 C 517.037 1646.9 516.054 1646.45 513.471 1644.95 C 514.549 1646.86 514.645 1646.91 515.995 1648.64 C 515.975 1649.36 515.781 1656.92 515.822 1657 C 519.154 1663.93 521.22 1661.1 521.304 1668.45 L 520.046 1669.42 L 518.878 1668.06 C 507.515 1654.96 495.296 1661.81 482.06 1653.8 C 480.671 1652.96 480.544 1649.97 476.248 1648.12 C 468.768 1643.17 422.374 1566.4 415.366 1554.03 C 416.833 1550.16 418.036 1549.04 419.278 1544.34 z"/>
<path transform="translate(0,0)" fill="rgb(156,209,236)" d="M 311.856 1372.82 C 317.867 1384.27 322.782 1396.49 328.705 1408.12 C 334.115 1418.75 339.79 1429.57 345.079 1440.27 C 346.763 1443.68 345.99 1455.25 347.801 1458.72 C 359.179 1480.48 373.282 1497.36 388.237 1516.42 C 389.968 1518.63 391.27 1520.58 392.794 1522.85 L 394.626 1521.3 C 393.567 1514.56 380.531 1496.14 377.421 1487.24 C 381.231 1489.23 383.545 1496.96 386.145 1500.64 C 389.242 1505.03 396.784 1513.05 399.196 1517.42 C 397.502 1522.72 402.674 1531.84 404.619 1536.84 C 401.9 1535.82 399.524 1534.9 396.862 1533.75 C 397.188 1542.19 439.724 1599.23 440.847 1608.33 C 417.502 1583.43 398.935 1546.41 375.437 1520.3 C 369.859 1514.1 360.719 1499.61 355.622 1494.98 C 353.248 1486.47 342.702 1472.96 338.514 1464.23 C 334.304 1455.45 330.745 1446.74 326.814 1437.85 C 320.402 1423.34 311.281 1405.83 306.621 1390.69 C 306.962 1387.46 308.307 1386.17 310.2 1383.46 L 311 1382.33 C 310.426 1377.72 309.701 1376.6 311.856 1372.82 z"/>
<path transform="translate(0,0)" fill="rgb(237,77,1)" d="M 1616.85 1612.44 L 1617.25 1615.36 C 1600.57 1632.6 1550.13 1686.07 1531.92 1695.81 C 1531.72 1691.96 1530.99 1690.6 1529.67 1687.05 C 1552.27 1672.67 1598.44 1632.19 1616.85 1612.44 z"/>
<path transform="translate(0,0)" fill="rgb(125,199,229)" d="M 399.196 1517.42 C 403.353 1522.48 416.228 1538.62 419.278 1544.34 C 418.036 1549.04 416.833 1550.16 415.366 1554.03 C 413.705 1552.29 406.95 1540.33 404.619 1536.84 C 402.674 1531.84 397.502 1522.72 399.196 1517.42 z"/>
<path transform="translate(0,0)" fill="rgb(29,28,71)" d="M 446.2 356.862 C 437.498 368.806 426.455 378.445 417.293 390.224 L 414.436 387.58 C 424.122 378.102 436.192 365.611 446.2 356.862 z"/>
<path transform="translate(0,0)" fill="rgb(217,196,177)" d="M 1616.85 1612.44 C 1621.85 1605.45 1630.36 1597.61 1636.79 1591.91 L 1636.95 1592.6 C 1631.88 1599.39 1623.35 1609.31 1617.25 1615.36 L 1616.85 1612.44 z"/>
<path transform="translate(0,0)" fill="rgb(197,133,100)" d="M 1887.91 779.212 C 1885.06 770.2 1882.75 763.345 1881.08 753.979 C 1884.2 760.688 1886.53 765.91 1889.08 772.832 L 1887.91 779.212 z"/>
<path transform="translate(0,0)" fill="rgb(217,196,177)" d="M 1617.05 1637.39 C 1620.01 1634.36 1623.85 1629.69 1627.63 1628.46 L 1619.21 1638.27 L 1617.05 1637.39 z"/>
<path transform="translate(0,0)" fill="url(#Gradient13)" d="M 589.948 485.008 L 687.866 571.486 C 705.663 587.089 729.939 606.682 746.25 623.139 C 784.895 655.228 826.756 694.44 864.287 728.091 C 887.804 749.176 926.305 782.067 947.953 804.195 C 947.926 871.085 951.668 938.38 953.083 1005.26 C 953.35 1017.87 954.224 1031.48 954.079 1044.01 C 955.046 1048.5 955.064 1048.65 954.037 1053.18 C 944.43 1062.3 931.42 1065.54 918.397 1063.21 C 874.617 1055.38 834.562 1028.39 807.603 993.713 C 784.648 964.188 765.853 939.666 773.51 900.418 C 774.974 891.242 775.634 888.371 770.522 881.832 L 771.212 881.41 L 847.76 948.069 L 848.821 945.463 C 842.921 940.274 836.559 934.18 830.985 928.621 C 798.953 896.677 763.837 866.637 732.232 834.359 C 713.213 820.912 683.57 784.753 664.311 769.046 C 652.293 759.245 643.262 705.022 638.502 685.283 C 621.812 618.649 605.626 551.888 589.948 485.008 z"/>
<path transform="translate(0,0)" fill="rgb(11,117,208)" d="M 589.948 485.008 L 687.866 571.486 C 705.663 587.089 729.939 606.682 746.25 623.139 C 750.417 631.274 764.901 641.552 772.403 649.393 C 773.63 656.942 775.154 664.593 774.965 672.223 L 777.168 672.484 C 777.278 679.091 772.237 694.389 771.138 704.797 C 768.717 727.727 771.629 746.836 768.912 769.394 C 768.012 776.857 762.013 796.568 762.356 800.424 L 764.312 801.391 C 764.142 809.052 762.659 825.185 761.093 832.704 C 755.827 837.656 749.866 841.291 749.559 847.558 L 734.156 833.949 L 732.232 834.359 C 713.213 820.912 683.57 784.753 664.311 769.046 C 652.293 759.245 643.262 705.022 638.502 685.283 C 621.812 618.649 605.626 551.888 589.948 485.008 z"/>
<path transform="translate(0,0)" fill="url(#Gradient12)" d="M 954.037 1053.18 C 944.43 1062.3 931.42 1065.54 918.397 1063.21 C 874.617 1055.38 834.562 1028.39 807.603 993.713 C 784.648 964.188 765.853 939.666 773.51 900.418 C 774.974 891.242 775.634 888.371 770.522 881.832 L 771.212 881.41 L 847.76 948.069 C 850.89 950.957 854.661 954.239 857.424 957.391 C 861.664 961.281 874.358 974.078 879.486 974.594 C 885.415 979.21 898.522 992.832 904.303 998.716 C 910.183 1004.7 919.66 1013.14 924.944 1018.75 C 930.004 1023.55 935.015 1028.39 939.976 1033.29 C 943.038 1036.2 949.78 1043.35 953.164 1044.38 L 954.079 1044.01 C 955.046 1048.5 955.064 1048.65 954.037 1053.18 z"/>
<path transform="translate(0,0)" fill="rgb(11,117,208)" d="M 857.424 957.391 C 861.664 961.281 874.358 974.078 879.486 974.594 C 885.415 979.21 898.522 992.832 904.303 998.716 C 910.183 1004.7 919.66 1013.14 924.944 1018.75 C 921.365 1017.54 917.43 1015.76 913.901 1014.28 C 903.423 1005.06 883.286 995.899 873.577 982.828 C 872.475 971.326 859.818 964.125 857.424 957.391 z"/>
<path transform="translate(0,0)" fill="rgb(65,135,215)" d="M 859.866 975.437 C 866.31 977.351 868.621 978.304 873.577 982.828 C 883.286 995.899 903.423 1005.06 913.901 1014.28 C 917.43 1015.76 921.365 1017.54 924.944 1018.75 C 930.004 1023.55 935.015 1028.39 939.976 1033.29 C 933.659 1031.51 929.698 1031.03 924.644 1026.96 L 922.043 1027.35 C 921.017 1026.99 919.991 1026.63 918.966 1026.27 C 911.624 1022.34 882.073 1001.91 878.792 996.29 C 881.296 995.698 880.595 996.389 881.714 994.838 C 875.208 986.514 867.75 982.372 859.866 975.437 z"/>
<path transform="translate(0,0)" fill="rgb(128,170,204)" d="M 922.043 1027.35 L 924.644 1026.96 C 929.698 1031.03 933.659 1031.51 939.976 1033.29 C 943.038 1036.2 949.78 1043.35 953.164 1044.38 L 954.079 1044.01 C 955.046 1048.5 955.064 1048.65 954.037 1053.18 C 952.52 1052.18 951.137 1051.04 949.7 1049.92 C 949.329 1048.86 947.693 1044.05 947.187 1043.72 C 938.819 1038.37 930.05 1033.2 922.043 1027.35 z"/>
<path transform="translate(0,0)" fill="rgb(156,209,236)" d="M 848.821 945.463 C 857.601 953.715 871.657 966.119 879.486 974.594 C 874.358 974.078 861.664 961.281 857.424 957.391 C 854.661 954.239 850.89 950.957 847.76 948.069 L 848.821 945.463 z"/>
<path transform="translate(0,0)" fill="url(#Gradient11)" d="M 654.81 424.119 C 741.925 375.336 828.076 321.899 915.275 273.057 C 950.289 253.445 988.572 229.165 1023.7 211.237 L 1024.98 390.091 L 829.321 504.62 C 794.13 525.104 754.113 547.375 719.887 569.011 C 713.826 564.236 669.33 527.755 666.878 523.865 C 659.707 518.908 646.768 507.04 639.744 500.947 L 593.572 461.209 C 610.72 449.546 636.475 435.082 654.81 424.119 z"/>
<path transform="translate(0,0)" fill="rgb(39,170,242)" d="M 654.81 424.119 C 676.366 436.606 666.362 441.699 670.101 462.188 C 672.821 477.088 686.373 499.191 676.893 514.722 C 673.474 520.322 674.012 519.76 671.536 525.424 C 668.314 523.313 669.849 523.417 666.878 523.865 C 659.707 518.908 646.768 507.04 639.744 500.947 L 593.572 461.209 C 610.72 449.546 636.475 435.082 654.81 424.119 z"/>
<path transform="translate(0,0)" fill="url(#Gradient10)" d="M 1031.58 410.788 C 1037.28 411.023 1072.55 434.6 1079.5 438.989 L 1168.44 495.364 C 1194.04 511.436 1219.55 527.649 1244.97 544.004 C 1257.31 551.898 1278.27 564.516 1289.13 573.408 C 1284.63 577.067 1279.51 580.77 1274.76 584.129 C 1247.47 603.419 1221.53 623.458 1195.54 644.441 C 1128.71 589.07 1074.02 558.772 984.922 576.835 C 928.329 590.814 876.104 628.188 830.447 662.716 C 802.565 640.983 764.872 606.927 738.008 582.943 C 752.957 571.199 788.366 553.015 806.234 542.144 C 854.817 512.883 903.725 484.169 952.95 456.004 C 979.299 440.8 1004.72 425.083 1031.58 410.788 z"/>
<path transform="translate(0,0)" fill="url(#Gradient9)" d="M 1040.27 210.868 C 1064.59 227.159 1092.23 243.592 1117.26 259.187 L 1256.94 346.302 C 1279.35 360.338 1315.5 381.393 1336.1 396.452 C 1343.34 399.685 1351.18 405.337 1358.03 409.515 C 1387.74 427.629 1417.12 447.99 1447.56 464.802 C 1438.02 472.355 1427.58 478.674 1417.72 485.784 C 1390.69 505.282 1362.88 523.655 1335.38 542.478 C 1330.69 545.684 1326.09 549.023 1321.13 551.793 C 1319.69 553.737 1312.45 558.234 1309.98 559.897 C 1298.32 553.891 1280.22 541.281 1268.57 533.874 L 1183.24 479.399 L 1083.65 416.997 C 1073.2 410.321 1049.59 396.135 1040.98 388.947 C 1042.32 371.814 1041.18 347.824 1041.09 329.734 L 1040.27 210.868 z"/>
<path transform="translate(0,0)" fill="rgb(15,54,135)" d="M 1321.13 551.793 C 1315.74 551.422 1313.87 558.53 1306.38 555.926 C 1307.38 546.715 1318.92 548.051 1320.24 535.165 C 1321.4 523.859 1324.13 513.182 1323 501.271 C 1322.02 490.927 1316.97 474.747 1318.17 465.074 C 1320.16 449.125 1324.23 432.035 1327.81 416.356 C 1328.48 413.44 1328.86 399.624 1329.32 394.738 L 1331.02 394.543 C 1333.16 395.988 1333.43 395.759 1336.1 396.452 C 1343.34 399.685 1351.18 405.337 1358.03 409.515 C 1387.74 427.629 1417.12 447.99 1447.56 464.802 C 1438.02 472.355 1427.58 478.674 1417.72 485.784 C 1390.69 505.282 1362.88 523.655 1335.38 542.478 C 1330.69 545.684 1326.09 549.023 1321.13 551.793 z"/>
<path transform="translate(0,0)" fill="url(#Gradient8)" d="M 1441.16 488.228 C 1446.05 485.29 1448.8 483.501 1454.22 481.44 L 1455.22 482.193 L 1453.69 483.961 C 1454.92 487.987 1453.72 486.935 1456.42 488.426 L 1412.78 701.867 C 1408.13 723.83 1402.72 756.402 1397.42 777.226 C 1386.07 789.728 1357.8 808.023 1344.03 819.907 C 1341.17 822.378 1331.87 829.089 1329.87 831.286 C 1326 838.922 1319.32 840.152 1315.91 845.59 C 1334.33 863.355 1331.38 878.543 1313.21 897.238 C 1305.83 904.841 1289.74 914.871 1280.05 919.265 L 1278.33 919.881 C 1270.01 922.91 1257.14 930.958 1249.7 932.878 C 1254.48 933.389 1258.35 933.458 1262.76 935.314 C 1255.24 939.796 1203.83 938.595 1196.35 947.366 C 1195.86 950.584 1195.83 951.032 1195.95 954.285 C 1194.18 951.387 1194.57 936.236 1195.9 932.302 C 1204.19 871.342 1212.18 810.34 1219.86 749.299 L 1228.26 685.16 C 1229.73 673.792 1231.12 662.193 1232.73 650.844 C 1233.4 646.117 1233.96 645.786 1236.92 642.8 C 1297.24 601.08 1357.23 558.879 1416.87 516.2 C 1411.87 511.21 1401.39 519.654 1394.51 520.518 C 1390.58 521.012 1387.83 520.833 1383.94 520.677 C 1395.93 511.959 1427.84 493.652 1441.16 488.228 z"/>
<path transform="translate(0,0)" fill="url(#Gradient7)" d="M 1236.92 642.8 L 1237.76 645.34 C 1240.01 646.472 1245.25 648.336 1245.51 650.853 C 1247.79 673.488 1252.19 690.417 1261.43 711.312 C 1263.77 716.609 1263.31 732.974 1265.32 739.256 C 1267.68 750.533 1270.83 761.5 1273.39 772.749 C 1276.9 788.154 1277.41 804.889 1280.07 820.251 C 1282.17 832.368 1277.19 857.905 1286.3 865.061 C 1299.93 855.764 1315.5 841.535 1329.87 831.286 C 1326 838.922 1319.32 840.152 1315.91 845.59 C 1334.33 863.355 1331.38 878.543 1313.21 897.238 C 1305.83 904.841 1289.74 914.871 1280.05 919.265 L 1278.33 919.881 C 1270.01 922.91 1257.14 930.958 1249.7 932.878 C 1254.48 933.389 1258.35 933.458 1262.76 935.314 C 1255.24 939.796 1203.83 938.595 1196.35 947.366 C 1195.86 950.584 1195.83 951.032 1195.95 954.285 C 1194.18 951.387 1194.57 936.236 1195.9 932.302 C 1204.19 871.342 1212.18 810.34 1219.86 749.299 L 1228.26 685.16 C 1229.73 673.792 1231.12 662.193 1232.73 650.844 C 1233.4 646.117 1233.96 645.786 1236.92 642.8 z"/>
<path transform="translate(0,0)" fill="url(#Gradient6)" d="M 1286.3 865.061 C 1299.93 855.764 1315.5 841.535 1329.87 831.286 C 1326 838.922 1319.32 840.152 1315.91 845.59 C 1334.33 863.355 1331.38 878.543 1313.21 897.238 C 1305.83 904.841 1289.74 914.871 1280.05 919.265 L 1278.33 919.881 C 1270.01 922.91 1257.14 930.958 1249.7 932.878 C 1254.48 933.389 1258.35 933.458 1262.76 935.314 C 1255.24 939.796 1203.83 938.595 1196.35 947.366 C 1195.86 950.584 1195.83 951.032 1195.95 954.285 C 1194.18 951.387 1194.57 936.236 1195.9 932.302 L 1196.11 936.017 C 1208.64 933.956 1237.81 904.407 1248.06 895.593 C 1254.3 890.24 1260.7 885.527 1267.5 880.61 C 1273.02 875.367 1280.27 870.441 1286.3 865.061 z"/>
<path transform="translate(0,0)" fill="rgb(65,135,215)" d="M 1267.5 880.61 L 1269.23 881.217 L 1271.85 879.38 C 1274.24 885.365 1274.21 892.596 1272.05 898.766 C 1267.59 911.476 1246.48 907.868 1243.7 921.481 C 1253.01 919.739 1262.82 917.737 1271.69 914.335 C 1276.34 912.55 1280.75 908.886 1285.24 907.754 C 1282.63 912.062 1280.27 914.138 1280.05 919.265 L 1278.33 919.881 C 1270.01 922.91 1257.14 930.958 1249.7 932.878 C 1254.48 933.389 1258.35 933.458 1262.76 935.314 C 1255.24 939.796 1203.83 938.595 1196.35 947.366 C 1195.86 950.584 1195.83 951.032 1195.95 954.285 C 1194.18 951.387 1194.57 936.236 1195.9 932.302 L 1196.11 936.017 C 1208.64 933.956 1237.81 904.407 1248.06 895.593 C 1254.3 890.24 1260.7 885.527 1267.5 880.61 z"/>
<path transform="translate(0,0)" fill="rgb(156,209,236)" d="M 1243.7 921.481 C 1253.01 919.739 1262.82 917.737 1271.69 914.335 C 1276.34 912.55 1280.75 908.886 1285.24 907.754 C 1282.63 912.062 1280.27 914.138 1280.05 919.265 L 1278.33 919.881 C 1270.01 922.91 1257.14 930.958 1249.7 932.878 C 1254.48 933.389 1258.35 933.458 1262.76 935.314 C 1255.24 939.796 1203.83 938.595 1196.35 947.366 C 1195.86 950.584 1195.83 951.032 1195.95 954.285 C 1194.18 951.387 1194.57 936.236 1195.9 932.302 L 1196.11 936.017 C 1201.87 941.777 1235.87 925.102 1243.7 921.481 z"/>
<path transform="translate(0,0)" fill="rgb(217,221,232)" d="M 1441.16 488.228 C 1446.05 485.29 1448.8 483.501 1454.22 481.44 L 1455.22 482.193 L 1453.69 483.961 C 1454.92 487.987 1453.72 486.935 1456.42 488.426 C 1443.31 495.634 1429.51 508.148 1416.87 516.2 C 1411.87 511.21 1401.39 519.654 1394.51 520.518 C 1390.58 521.012 1387.83 520.833 1383.94 520.677 C 1395.93 511.959 1427.84 493.652 1441.16 488.228 z"/>
<path transform="translate(0,0)" fill="rgb(170,171,178)" d="M 1441.16 488.228 C 1446.05 485.29 1448.8 483.501 1454.22 481.44 L 1455.22 482.193 L 1453.69 483.961 C 1449.23 486.303 1445.97 488.855 1441.16 488.228 z"/>
<path transform="translate(0,0)" fill="rgb(15,54,135)" d="M 491.989 1102.7 L 582.626 1102.7 C 618.583 1102.69 668.658 1096.64 673.865 1147.35 C 677.784 1185.53 672.106 1220.42 625.945 1224.57 C 596.798 1225.57 564.326 1224.91 534.931 1224.91 L 534.794 1271.86 C 520.496 1271.89 506.197 1271.79 491.901 1271.54 L 491.989 1102.7 z"/>
<path transform="translate(0,0)" fill="rgb(245,247,249)" d="M 534.823 1139.81 C 549.119 1139.85 617.687 1136.86 625.702 1142.59 C 629.462 1145.28 630.998 1151.12 631.538 1155.43 C 632.643 1164.25 632.917 1177.16 626.704 1184.14 C 622.865 1188.46 617.64 1188.67 612.25 1188.87 L 548.316 1188.68 C 542.94 1196.97 539.585 1203.04 535.011 1211.84 C 534.054 1189.78 534.807 1162.28 534.823 1139.81 z"/>
<path transform="translate(0,0)" fill="url(#Gradient5)" d="M 1399.34 1303.44 C 1425.3 1303.23 1471.73 1298.41 1493.91 1312.38 C 1501.13 1317.5 1508.6 1329.73 1508.18 1338.81 C 1506.34 1378.42 1523.63 1437.3 1468.25 1442.97 C 1442.33 1443.07 1411.81 1444.8 1386.22 1440.99 C 1368.99 1438.06 1355.24 1418.58 1356.38 1401.88 C 1359.13 1361.8 1340.47 1307.13 1399.34 1303.44 z"/>
<path transform="translate(0,0)" fill="rgb(245,247,249)" d="M 1399.75 1334.07 C 1419.93 1332.64 1443.05 1333.83 1463.52 1333.94 C 1476.58 1334.14 1473.25 1364.71 1473.34 1374.64 C 1473.46 1387.56 1476.16 1405.37 1464.79 1412.96 C 1444.33 1413.24 1423.02 1413.82 1402.61 1412.58 C 1395.61 1412.75 1392.2 1404.16 1391.94 1398.02 C 1391.14 1379.51 1390.76 1359.85 1392.34 1341.38 C 1392.6 1338.33 1397.38 1335.58 1399.75 1334.07 z"/>
<path transform="translate(0,0)" fill="rgb(3,75,170)" d="M 1230.12 1303.43 C 1246.92 1302.94 1265.31 1303.44 1281.62 1303.17 C 1325.8 1302.44 1339.35 1317.76 1336.95 1360.82 C 1334.9 1397.69 1347.81 1437.69 1295.25 1442.96 C 1270.94 1443.09 1244.93 1444.29 1220.91 1442.11 C 1192.02 1437.8 1183.69 1414.8 1185.12 1389.48 C 1187.4 1349.3 1173.24 1306.74 1230.12 1303.43 z"/>
<path transform="translate(0,0)" fill="rgb(245,247,249)" d="M 1228.21 1334.1 C 1248.08 1332.93 1268.75 1333.72 1288.66 1333.61 C 1303.75 1331.74 1302.92 1353.79 1302.17 1364.99 C 1301.25 1378.64 1306.32 1403.5 1294.62 1412.46 C 1285.77 1413.72 1232.41 1414.66 1225.5 1410.06 C 1219.21 1401.36 1220.8 1387.5 1220.71 1377.15 C 1220.61 1366.06 1220.63 1354.72 1221.08 1343.66 C 1221.28 1338.84 1224.72 1336.77 1228.21 1334.1 z"/>
<path transform="translate(0,0)" fill="rgb(15,54,135)" d="M 767.355 1102.39 C 839.601 1100.26 841.521 1109.8 860.197 1175.49 C 869.135 1207.63 878.245 1239.71 887.527 1271.75 C 872.979 1271.97 858.088 1271.82 843.51 1271.83 C 839.944 1259.46 836.264 1247.12 832.471 1234.82 L 744.553 1234.63 C 748.08 1222.64 751.735 1210.69 755.519 1198.78 C 767.442 1198.32 812.783 1199.54 820.341 1197.65 L 821.031 1195.78 C 817.256 1181.88 814.241 1167.74 810.265 1153.88 C 806.585 1141.06 796.604 1137.94 784.456 1138.68 C 775.597 1139.01 764.249 1138.29 760.366 1148.41 C 755.078 1162.2 751.065 1177.17 746.798 1191.42 C 738.788 1218.24 730.58 1245 722.175 1271.7 C 708.567 1272.3 691.933 1271.88 678.095 1271.9 C 683.754 1247.38 693.398 1220.42 700.353 1195.87 C 706.528 1176.23 711.637 1156.22 718.432 1136.78 C 726.891 1112.58 743.832 1104.57 767.355 1102.39 z"/>
<path transform="translate(0,0)" fill="rgb(3,75,170)" d="M 1661.33 1303.72 L 1698.91 1303.56 L 1699.05 1442.89 L 1664.85 1443.05 L 1664.85 1414.8 L 1664.99 1362.12 L 1626.9 1427.04 L 1601.28 1426.99 C 1589.08 1407.42 1574.56 1381.45 1563.09 1361.12 L 1563.04 1442.97 L 1528.23 1442.92 C 1527.35 1397.87 1527.9 1349.15 1528.23 1303.93 C 1541.36 1303.69 1553.55 1303.56 1566.67 1303.93 C 1582.44 1330.03 1598.24 1358.62 1613.53 1385.22 C 1627.66 1364.58 1648.81 1326.38 1661.33 1303.72 z"/>
<path transform="translate(0,0)" fill="rgb(15,54,135)" d="M 937.656 1103.22 C 948.448 1102.06 969.841 1102.6 981.142 1102.63 L 1060.14 1102.83 L 1059.84 1139.21 C 1035.13 1139.9 1010.13 1138.66 985.261 1139.39 C 957.308 1142.56 933.627 1127.15 932.847 1165.68 C 931.172 1248.36 929.617 1236.2 1013.41 1235.71 C 1028.86 1235.56 1044.58 1235.75 1060.06 1235.79 C 1060.27 1247.68 1060.16 1259.94 1060.18 1271.86 L 981.304 1271.94 C 913.289 1271.96 887.937 1270.99 891.1 1192.54 C 892.766 1151.24 881.959 1113.7 937.656 1103.22 z"/>
<path transform="translate(0,0)" fill="rgb(3,75,170)" d="M 1195.51 1103.19 C 1209.7 1102.17 1226.09 1102.6 1240.51 1102.62 L 1311.37 1102.71 L 1311.13 1139.16 C 1279.67 1139.79 1233.72 1137.72 1204.11 1140.04 C 1191.24 1149.06 1194.61 1158.46 1194.94 1173.35 C 1231.78 1173.97 1269.24 1172.6 1305.99 1173.78 L 1306.36 1195 L 1306.09 1210.48 C 1270.31 1209.46 1231.13 1210.35 1195.01 1210.13 L 1195.08 1271.91 L 1153.39 1271.93 C 1152.58 1230.43 1153.27 1185.19 1154.35 1143.53 C 1154.96 1119.86 1173.51 1107.78 1195.51 1103.19 z"/>
<path transform="translate(0,0)" fill="url(#Gradient4)" d="M 415.096 1303.48 C 437.461 1303.63 459.826 1303.65 482.191 1303.57 C 492.425 1303.55 512.071 1303.01 521.553 1304.13 C 526.668 1304.7 531.667 1306.05 536.376 1308.13 C 561.351 1319.36 561.792 1354.43 553.755 1377.59 C 550.034 1388.31 536.012 1395.2 525.45 1398.68 C 533.919 1411.47 548.793 1429.05 558.756 1442.9 L 517.175 1443.02 C 508.082 1429.17 496.087 1413.45 486.197 1399.88 C 479.915 1399.94 454.696 1400.94 451.031 1398.63 C 454.956 1386.53 457.552 1381.45 464.241 1370.6 C 476.724 1369.91 509.738 1374.27 518.314 1366.51 C 520.959 1364.12 522.203 1360.87 522.445 1357.37 C 522.885 1351.01 522.838 1341.28 517.986 1336.59 C 512.025 1330.84 458.367 1333.67 446.872 1333.76 L 446.766 1442.96 L 410.948 1442.97 C 410.938 1430.09 410.261 1306.46 411.632 1303.99 L 415.096 1303.48 z"/>
<path transform="translate(0,0)" fill="url(#Gradient3)" d="M 1030.12 1303.48 C 1050.68 1303.3 1071.25 1303.25 1091.82 1303.32 C 1128.79 1303.33 1167.4 1299.3 1166.19 1351.08 C 1165.59 1376.43 1161.06 1390.74 1133.8 1398.69 C 1145.02 1413.35 1156.17 1428.07 1167.24 1442.84 C 1153.6 1443.02 1139.69 1442.9 1126.03 1442.91 C 1115.58 1429.16 1105.17 1412.33 1094.22 1399.41 C 1087.07 1399.24 1064.67 1401.76 1060.57 1397.56 L 1061.66 1393.69 L 1072.72 1370.22 C 1085.14 1370.07 1117.65 1373.81 1126.52 1366.99 C 1129.12 1365 1130.67 1362.1 1130.97 1358.85 C 1131.55 1352.53 1131.74 1341.45 1126.81 1336.76 C 1120.7 1330.97 1066.63 1333.53 1055.16 1333.28 C 1054.97 1369.83 1055.09 1406.38 1055.52 1442.93 L 1020.28 1442.95 L 1020.16 1355.47 C 1020.15 1341.21 1019.5 1318.76 1020.6 1304.97 C 1023.36 1303.31 1026.75 1303.62 1030.12 1303.48 z"/>
<path transform="translate(0,0)" fill="rgb(3,75,170)" d="M 809.108 1303.5 C 827.758 1303.42 846.408 1303.53 865.055 1303.83 C 865.133 1313.93 864.459 1323.17 863.796 1333.21 C 843.346 1334.67 821.976 1333.02 801.985 1333.56 C 789.275 1333.91 765.829 1328.83 767.903 1346.51 C 768.23 1349.3 768.759 1354.48 772.007 1355.44 C 809.463 1366.6 875.836 1336.87 872.177 1403.17 C 870.367 1450.93 823.986 1443.27 788.5 1443.02 L 731.948 1442.96 C 732.143 1433.21 732.82 1423.11 733.066 1413.18 L 800.118 1413.15 C 804.843 1413.15 824.912 1413.46 827.948 1412.95 C 829.71 1412.66 831.362 1411.91 832.735 1410.76 C 835.695 1408.28 837.984 1402.39 837.804 1398.54 C 836.802 1377.05 768.142 1399.01 743.336 1377.12 C 735.673 1370.36 732.618 1361.04 732.056 1351.07 C 731.359 1338.73 732.482 1324.69 741.387 1315.28 C 756.688 1299.12 788.631 1303.53 809.108 1303.5 z"/>
<path transform="translate(0,0)" fill="rgb(3,75,170)" d="M 622.539 1303.41 C 651.277 1302.58 684.619 1303.61 713.777 1303.64 L 712.879 1332.93 C 695.598 1334.82 626.783 1329.58 618.438 1337.16 C 613.491 1341.66 614.568 1351.67 614.399 1357.78 C 645.238 1358.12 676.08 1358.2 706.921 1358.03 L 706.904 1386.17 C 694.473 1386.56 621.242 1385.07 615.373 1387.33 L 614.822 1389.75 C 614.597 1400.73 612.76 1411.32 627.174 1412.64 C 638.004 1413.63 648.776 1413.16 659.645 1413.12 L 713.774 1413.04 L 713.833 1443.01 L 650.279 1443.12 C 589.838 1443.2 576.773 1438.51 579.068 1374.15 C 580.385 1337.23 572.092 1307.19 622.539 1303.41 z"/>
<path transform="translate(0,0)" fill="url(#Gradient2)" d="M 1406.61 1239.22 C 1400.55 1227.14 1403.77 1198.88 1403.24 1184.89 C 1401.96 1150.8 1400.4 1113.17 1442.58 1104.47 C 1457.93 1101.3 1476.31 1102.6 1492.34 1102.61 L 1568.94 1102.87 L 1568.63 1139.21 C 1545.81 1140.1 1469.63 1135.68 1454.13 1141.87 C 1450.34 1143.38 1448.01 1145.6 1446.58 1149.45 C 1443.59 1157.5 1444.06 1210.22 1445.34 1220.34 C 1445.77 1223.75 1447.1 1226.76 1448.52 1229.85 L 1447.79 1231.18 C 1451.2 1234.51 1453.14 1234.98 1454.4 1238.72 C 1451.03 1250.28 1423.07 1249.72 1413.75 1246.74 C 1410.6 1245.73 1409.45 1241.35 1407.57 1238.89 L 1406.61 1239.22 z"/>
<path transform="translate(0,0)" fill="url(#Gradient1)" d="M 913.914 1303.49 C 946.081 1303.4 978.248 1303.54 1010.41 1303.9 C 1010.69 1313.84 1010.49 1323.68 1010.35 1333.61 C 993.732 1333.75 977.115 1333.66 960.502 1333.33 C 960.202 1365.81 960.134 1398.31 960.297 1430.8 L 960.418 1442.96 L 924.327 1442.9 C 923.547 1408.52 924.099 1368.24 924.811 1333.85 C 908.541 1333.05 889.353 1333.49 873.003 1333.56 L 873.107 1303.81 C 885.952 1303.29 900.906 1303.57 913.914 1303.49 z"/>
<path transform="translate(0,0)" fill="rgb(3,75,170)" d="M 1082.7 1102.85 C 1096.6 1102.66 1110.88 1102.85 1124.82 1102.87 C 1124.52 1159.22 1124.58 1215.57 1124.99 1271.91 L 1082.84 1271.83 C 1081.63 1216.96 1082.93 1158.17 1082.7 1102.85 z"/>
<path transform="translate(0,0)" fill="rgb(3,75,170)" d="M 1333.08 1102.78 C 1346.97 1102.65 1361.07 1102.81 1374.98 1102.83 L 1374.8 1249.37 L 1374.92 1271.44 C 1361.02 1271.83 1347.11 1271.97 1333.21 1271.85 L 1333.21 1259.22 C 1331.66 1210.38 1333.13 1152.26 1333.08 1102.78 z"/>
<path transform="translate(0,0)" fill="rgb(15,54,135)" d="M 1372.49 1268.55 C 1372.7 1257.84 1372.79 1247.11 1372.78 1236.39 L 1373.74 1235.32 L 1373.13 1232.94 C 1374.1 1236.32 1374.51 1245.44 1374.8 1249.37 L 1374.92 1271.44 C 1361.02 1271.83 1347.11 1271.97 1333.21 1271.85 L 1333.21 1259.22 C 1334.01 1251.47 1334.09 1241.68 1334.77 1233.34 C 1335.58 1242.28 1335.11 1253.82 1334.98 1262.98 C 1344.62 1269.7 1360.19 1268.14 1372.49 1268.55 z"/>
<path transform="translate(0,0)" fill="rgb(15,54,135)" d="M 1448.52 1229.85 C 1450.94 1231.63 1452.58 1232.89 1454.86 1234.83 C 1486.78 1237.32 1537.54 1235.85 1570.97 1235.81 L 1570.99 1271.87 L 1493.58 1271.64 C 1464.94 1271.61 1416.15 1276.94 1406.61 1239.22 L 1407.57 1238.89 C 1409.45 1241.35 1410.6 1245.73 1413.75 1246.74 C 1423.07 1249.72 1451.03 1250.28 1454.4 1238.72 C 1453.14 1234.98 1451.2 1234.51 1447.79 1231.18 L 1448.52 1229.85 z"/>
<path transform="translate(0,0)" fill="rgb(57,57,58)" d="M 1510.29 1485.35 C 1518.24 1484.94 1525.86 1484.05 1533.47 1487.67 C 1548.97 1495.03 1547.54 1517.87 1541.02 1530.84 C 1538.3 1536.27 1533.84 1537.94 1528.14 1539.55 C 1520.78 1540.24 1509.82 1541.07 1503.74 1537.02 C 1486.35 1525.43 1486.57 1490.4 1510.29 1485.35 z"/>
<path transform="translate(0,0)" fill="rgb(245,247,249)" d="M 1512.56 1496.23 C 1520.27 1495.97 1529.23 1495.26 1532.58 1503.59 C 1536.01 1512.1 1534.33 1524.77 1525.38 1528.82 C 1503.49 1529.95 1500.32 1521.88 1506.29 1500.64 C 1507.01 1498.09 1510.38 1497.13 1512.56 1496.23 z"/>
<path transform="translate(0,0)" fill="rgb(57,57,58)" d="M 1277.9 1485.4 C 1285.39 1485.04 1295.56 1484.09 1301.8 1488.19 C 1319.32 1499.68 1317.69 1533.99 1294.97 1539.56 C 1287.21 1540.07 1276.34 1541.2 1270.05 1536.49 C 1254.31 1524.7 1255.18 1489.72 1277.9 1485.4 z"/>
<path transform="translate(0,0)" fill="rgb(245,247,249)" d="M 1278.87 1496.41 C 1286.76 1496.04 1295.17 1494.41 1299.79 1502.57 C 1303.59 1509.29 1300.85 1517.26 1299.19 1524.19 C 1298.57 1526.78 1295.6 1527.73 1293.5 1528.77 C 1270.21 1529.99 1269.29 1521.93 1273.74 1500.79 C 1274.28 1498.24 1276.86 1497.39 1278.87 1496.41 z"/>
<path transform="translate(0,0)" fill="rgb(57,57,58)" d="M 932.205 1485.31 C 943.17 1484.72 963.371 1483.4 965.957 1498.27 C 968.715 1514.14 970.251 1534.53 950.956 1539.56 C 934.321 1540.83 925.95 1541.98 916.164 1526.8 C 915.78 1509.17 911.53 1491.05 932.205 1485.31 z"/>
<path transform="translate(0,0)" fill="rgb(245,247,249)" d="M 931.207 1497.05 C 937.953 1496.76 948.057 1495.15 953.021 1498.79 C 956.321 1505.7 957.322 1522.72 951.416 1528.16 C 946.827 1528.85 934.955 1530.6 931.632 1527.25 C 925.705 1521.26 926.453 1503.43 931.207 1497.05 z"/>
<path transform="translate(0,0)" fill="rgb(57,57,58)" d="M 543.019 1485.08 C 555.053 1485.05 579.012 1481.55 586.045 1492.78 C 591.798 1501.96 580.805 1508.63 587.842 1517.32 C 592.45 1523.02 589.868 1528.61 586.974 1534.23 C 576.75 1542.54 556.39 1539.98 542.951 1539.54 L 543.019 1485.08 z"/>
<path transform="translate(0,0)" fill="rgb(245,247,249)" d="M 554.405 1496.69 L 564.072 1496.65 C 568.263 1496.64 573.03 1495.88 575.711 1498.56 C 576.156 1502.71 576.666 1501.75 575.052 1504.92 C 569.195 1508.47 563.561 1503.61 559.032 1509.87 C 558.645 1513.02 558.247 1514.08 559.462 1517.04 C 562.125 1518.16 570.855 1517.72 574.249 1517.7 C 576.587 1518.26 575.71 1517.89 577.637 1519.57 C 578.51 1523.87 578.823 1522.52 577.567 1526.28 C 572.865 1530.57 560.848 1528.95 553.999 1528.7 C 554.299 1518.03 554.435 1507.36 554.405 1496.69 z"/>
<path transform="translate(0,0)" fill="rgb(15,54,135)" d="M 661.22 1655.37 L 672.589 1655.41 L 673.494 1658.55 C 680.026 1658.79 683.616 1652.2 693.106 1655.3 C 707.298 1659.92 712.358 1672.96 707.459 1686.74 C 704.747 1694.36 700.609 1697.32 693.127 1700.45 L 691.787 1700.59 C 682.317 1701.65 680.47 1697.7 675.191 1698.73 C 673.614 1702.86 674.192 1711.22 674.223 1716.02 L 661.093 1716 C 660.963 1695.79 661.006 1675.58 661.22 1655.37 z"/>
<path transform="translate(0,0)" fill="rgb(217,221,232)" d="M 682.887 1664.97 C 699.619 1666.8 701.426 1683.47 686.984 1689.98 C 671.038 1688.52 669.391 1672.4 682.887 1664.97 z"/>
<path transform="translate(0,0)" fill="rgb(15,54,135)" d="M 948.783 1655.25 C 951.54 1655.2 956.538 1654.54 959.048 1656.2 C 966.406 1660.56 972.347 1651.51 982.011 1655.77 C 1001.6 1664.39 1001.44 1691.85 980.544 1700.24 C 971.443 1701.41 969.647 1700.58 961.489 1696.13 L 961.141 1715.92 L 948.798 1715.99 L 948.783 1655.25 z"/>
<path transform="translate(0,0)" fill="rgb(245,247,249)" d="M 969.947 1664.88 C 986.815 1666.61 988.369 1683.8 973.767 1690.18 C 957.962 1688.34 956.943 1672.87 969.947 1664.88 z"/>
<path transform="translate(0,0)" fill="rgb(15,54,135)" d="M 1122.99 1638.66 L 1135.4 1638.59 L 1135.43 1699.74 C 1131.1 1699.89 1128.36 1700 1124.07 1699.64 L 1122.94 1697.15 C 1115.96 1696.38 1118.55 1702.6 1103.49 1699.73 C 1073.19 1687.17 1093.67 1639.46 1122.95 1659.6 L 1122.99 1638.66 z"/>
<path transform="translate(0,0)" fill="rgb(245,247,249)" d="M 1110.69 1665.16 C 1127.22 1667.42 1128.32 1683.83 1113.06 1690.61 C 1108.13 1689.6 1104.68 1688.18 1102.33 1683.37 C 1100.81 1680.32 1100.6 1676.79 1101.73 1673.58 C 1103.43 1668.64 1106.24 1667.17 1110.69 1665.16 z"/>
<path transform="translate(0,0)" fill="rgb(57,57,58)" d="M 807.947 1485.16 C 823.943 1484.35 833.801 1493.6 822.768 1508.16 L 821.74 1509.51 L 822.044 1510.54 C 830.54 1513.59 829.945 1508.26 837.498 1510.5 C 840.402 1512.91 840.572 1515.59 841.558 1519.35 L 827.138 1520.15 C 830.622 1524.4 838.852 1533.3 839.08 1538.58 L 835.927 1539.72 C 833.087 1539.62 831.7 1539.51 828.891 1539.1 C 825.806 1536.55 825.805 1536.41 822.218 1534.85 C 805.342 1544.77 788.066 1540.77 790.846 1518.44 C 791.425 1513.78 798.585 1511.23 798.497 1508.06 C 798.146 1495.38 791.514 1492 807.947 1485.16 z"/>
<path transform="translate(0,0)" fill="rgb(245,247,249)" d="M 804.413 1518.11 C 811.335 1517.93 815.567 1519.1 817.453 1526.58 C 816.425 1529.22 817.276 1528.11 814.228 1529.51 C 808.808 1529.34 802.793 1529.77 800.448 1524.14 C 801.153 1520.8 801.934 1520.44 804.413 1518.11 z"/>
<path transform="translate(0,0)" fill="rgb(245,247,249)" d="M 808.928 1496.74 C 810.513 1495.58 812.62 1495.41 814.371 1496.31 C 816.122 1497.2 817.217 1499.01 817.202 1500.97 C 817.186 1502.94 816.062 1504.73 814.298 1505.6 C 811.881 1506.79 808.957 1505.93 807.561 1503.63 C 806.164 1501.33 806.758 1498.34 808.928 1496.74 z"/>
<path transform="translate(0,0)" fill="rgb(15,54,135)" d="M 1052.99 1655.06 C 1065.46 1651.4 1078.55 1658.49 1082.29 1670.94 C 1086.03 1683.39 1079.02 1696.52 1066.59 1700.33 C 1054.06 1704.19 1040.79 1697.1 1037.01 1684.54 C 1033.24 1671.98 1040.41 1658.75 1052.99 1655.06 z"/>
<path transform="translate(0,0)" fill="rgb(245,247,249)" d="M 1058.19 1664.85 C 1074.19 1667.62 1075.53 1683.83 1062.07 1690.24 C 1060.21 1690.15 1058.37 1689.85 1056.57 1689.36 C 1045.78 1686.29 1045.07 1670.44 1058.19 1664.85 z"/>
<path transform="translate(0,0)" fill="rgb(57,57,58)" d="M 1553.04 1485.06 C 1554.37 1485.01 1560.16 1484.79 1560.87 1485.12 C 1569.67 1489.16 1583.96 1511.55 1590.62 1520.02 C 1590.99 1510.15 1587.13 1489.47 1595.12 1485.02 C 1598.92 1485.02 1598.65 1484.38 1601.14 1486.22 C 1602.74 1496.37 1601.85 1526.87 1601.79 1538.81 C 1593.75 1541.73 1588.82 1536.74 1584.33 1530.82 C 1578.04 1522.55 1571.89 1513.97 1565.73 1505.6 C 1565.03 1516.4 1565.79 1528.05 1564.54 1538.66 C 1561.65 1539.95 1556.47 1539.43 1553.09 1539.36 L 1553.04 1485.06 z"/>
<path transform="translate(0,0)" fill="rgb(237,77,1)" d="M 1384.24 1602.15 C 1357.21 1603.88 1321.11 1602.9 1293.72 1602.85 L 1154.93 1602.89 C 1148.81 1602.88 1104.21 1603.47 1101.29 1601.69 L 1101.5 1599.38 C 1106.22 1595.56 1143.59 1597.05 1151.84 1597.04 L 1245.14 1597.03 C 1288.45 1597.04 1342.08 1595.18 1384.5 1597.4 L 1384.24 1602.15 z"/>
<path transform="translate(0,0)" fill="rgb(237,77,1)" d="M 655.657 1598.08 C 670.7 1596.55 688.331 1597.09 703.704 1597.03 L 784.505 1596.93 L 882.906 1597 C 894.847 1597 928.146 1595.37 937.175 1598.93 L 937.733 1600.34 C 931.873 1604.74 891.156 1602.87 881.112 1602.87 L 781.131 1602.81 C 754.924 1602.98 728.716 1602.94 702.51 1602.71 C 689.183 1602.66 671.642 1603.73 658.737 1601.52 C 656.395 1600.12 652.168 1600.34 649.117 1600.18 L 651.698 1599.67 C 653.119 1598.21 653.031 1598.74 655.657 1598.08 z"/>
<path transform="translate(0,0)" fill="rgb(57,57,58)" d="M 1128.13 1485.14 C 1138.34 1485.2 1148.84 1484.37 1158.77 1485.23 C 1174.06 1486.57 1177.05 1496.84 1174.97 1510.28 C 1173.93 1516.94 1170.79 1518.89 1165.81 1522.71 C 1169.49 1528.15 1173.67 1533.78 1177.52 1539.16 L 1163.83 1539.5 C 1160.92 1535.3 1156.35 1527.1 1152.98 1524.15 C 1150.08 1524.36 1148.3 1524.76 1145.59 1523.72 C 1144.75 1520.74 1145.61 1518.37 1146.16 1515.04 L 1146.27 1514.33 C 1148 1512.66 1159.85 1512.29 1163.96 1511.73 C 1164.91 1491.46 1157 1495.89 1139.23 1496.15 C 1139 1505.59 1141.25 1533.21 1137.35 1539.01 C 1134.54 1539.94 1130.84 1539.95 1128.61 1537.9 C 1127.04 1528.09 1128.04 1496.2 1128.13 1485.14 z"/>
<path transform="translate(0,0)" fill="rgb(57,57,58)" d="M 732.17 1485.34 C 741.766 1484.94 751.999 1485.19 761.65 1485.25 L 758.094 1496.6 C 752.436 1496.56 732.69 1495.74 729.09 1498.01 C 728.38 1501.4 728.047 1501.73 728.909 1505.14 C 736.84 1511.38 749.275 1501.4 757.417 1509.55 C 758.242 1512.92 758.391 1512.87 757.768 1516.45 C 750.264 1521.47 741.367 1514.46 730.21 1518.39 C 727.808 1521 728.574 1520.26 728.204 1524.69 L 729.794 1527.14 C 735.66 1530.17 752.069 1528.89 759.415 1528.68 C 759.751 1532.04 759.803 1536.33 759.947 1539.77 C 751.214 1539.7 731.075 1540.59 724.063 1537.13 C 712.427 1531.39 713.967 1500.6 720.386 1491.27 C 723.702 1486.45 727.098 1486.16 732.17 1485.34 z"/>
<path transform="translate(0,0)" fill="rgb(57,57,58)" d="M 1626.95 1485.46 C 1636.51 1485.07 1645.49 1485.18 1655.02 1485.29 L 1650.59 1496.76 C 1644.09 1496.68 1629.28 1495.94 1623.52 1497.82 C 1621.63 1500.83 1622.04 1499.25 1622.04 1502.66 C 1626.72 1508.89 1642.52 1505.11 1649.65 1510.4 C 1665.46 1522.13 1655.48 1537.99 1638.25 1539.97 C 1627.82 1539.96 1619.17 1539.79 1608.7 1539.16 C 1610.14 1535.8 1612.13 1532.06 1613.78 1528.75 C 1622.55 1528.75 1644.46 1532.68 1645.56 1522.25 C 1640.56 1516.22 1631.84 1518.72 1624.46 1517.17 C 1608.16 1513.75 1605.06 1503.93 1613.97 1490.35 C 1616.73 1486.15 1622.72 1485.93 1626.95 1485.46 z"/>
<path transform="translate(0,0)" fill="rgb(57,57,58)" d="M 1094.15 1485.34 C 1102.62 1485.04 1112.06 1485.28 1120.61 1485.32 C 1117.45 1507.65 1098.35 1489.7 1089.63 1499.35 C 1088.81 1503.48 1088.65 1501.55 1089.84 1505.37 C 1096.73 1510.54 1109.66 1504.2 1118.15 1508.01 C 1120.68 1510.82 1120.23 1509.29 1120.29 1512.46 C 1114.09 1524.26 1102.94 1513.75 1090.75 1518.21 C 1088.33 1521.35 1089.14 1520.57 1089.42 1525.75 C 1096.11 1531.46 1108.32 1526.31 1118.69 1530.15 C 1121.31 1533 1121.49 1537.63 1118.26 1539.12 C 1112.03 1541.99 1100.12 1540.1 1093.35 1539.15 C 1085.08 1537.98 1082.7 1535.62 1078.24 1529.05 C 1076.85 1520.07 1075.21 1499.78 1080.58 1492.32 C 1084.48 1486.91 1088.06 1486.4 1094.15 1485.34 z"/>
<path transform="translate(0,0)" fill="rgb(57,57,58)" d="M 1223.15 1485.36 C 1232.49 1485.06 1242.45 1485.32 1251.84 1485.4 C 1251.19 1488.91 1249.93 1493.16 1249 1496.67 C 1240.33 1496.25 1223.96 1494 1218.23 1501.62 L 1218.66 1503.56 C 1228.67 1511.59 1266.88 1500.84 1251 1533.92 C 1249.25 1537.58 1242.08 1539.12 1238.57 1539.7 L 1207.64 1539.14 C 1208.98 1535.9 1210.28 1532.22 1211.54 1528.9 C 1219.43 1528.99 1236.3 1530.64 1241.69 1526.7 C 1243.23 1522.99 1243.1 1524.8 1242.38 1521.09 C 1234.69 1513.87 1212.04 1521.7 1209.2 1509.55 C 1205.7 1494.62 1209.83 1487.92 1223.15 1485.36 z"/>
<path transform="translate(0,0)" fill="rgb(15,54,135)" d="M 726.202 1655.24 C 727.628 1655.11 729.057 1655 730.488 1654.91 C 761.327 1652.99 756.098 1677.41 755.959 1700.1 C 743.671 1700.61 745.043 1695.69 733.308 1700.24 C 728.271 1702.19 723.22 1699.73 718.73 1697.29 C 699.425 1673.51 737.941 1675.08 742.89 1670.96 C 740.244 1660.1 730.388 1668.02 720.829 1667.3 C 717.039 1665.01 717.86 1664.57 715.626 1659.57 L 726.202 1655.24 z"/>
<path transform="translate(0,0)" fill="rgb(245,247,249)" d="M 733.625 1681.24 C 737.088 1680.98 739.415 1680.31 742.18 1682.2 C 745.355 1688.16 741.225 1690.29 736.111 1692.36 C 731.225 1691.84 726.841 1691.23 727.235 1685.17 C 730.227 1681.81 729.042 1682.89 733.625 1681.24 z"/>
<path transform="translate(0,0)" fill="rgb(57,57,58)" d="M 485.165 1485.11 C 489.707 1484.95 491.117 1484.76 495.488 1485.62 C 501.129 1494.67 490.375 1525.49 501.995 1528.4 C 538.06 1537.44 510.412 1489.55 526.586 1483.34 C 533.34 1485.01 532.866 1489.51 533.028 1494.75 C 532.979 1506.31 535.761 1525.46 528.031 1534.17 C 520.835 1542.58 497.828 1542.44 490.698 1534.71 C 481.782 1525.03 484.953 1498.07 485.165 1485.11 z"/>
<path transform="translate(0,0)" fill="rgb(57,57,58)" d="M 1365.88 1485.21 L 1377.35 1485.1 C 1378.02 1497.86 1375.76 1512.16 1379.13 1524.21 C 1381.17 1531.49 1395.02 1529.71 1400.04 1526.86 C 1405.58 1519.64 1397.67 1491.92 1406.75 1483.81 C 1410.04 1483.6 1409.9 1483.9 1412.75 1485.73 C 1414.35 1487.93 1413.86 1492.36 1413.84 1495.37 C 1414.03 1517.44 1418.5 1545.08 1384.49 1540 C 1374.89 1538.56 1371.39 1535.61 1366.12 1527.7 C 1365.48 1514.93 1365.92 1498.28 1365.88 1485.21 z"/>
<path transform="translate(0,0)" fill="rgb(57,57,58)" d="M 1024.99 1485.24 C 1028.7 1485.01 1031.35 1484.41 1034.63 1486.01 C 1038.92 1491.48 1036.86 1503.43 1036.96 1512.03 C 1043.02 1504.18 1053.44 1492.37 1060.25 1485.21 C 1064.55 1485.2 1069.14 1485.51 1073.47 1485.71 C 1066.66 1492.82 1057.85 1504.17 1050.89 1512.05 L 1064.23 1528.08 L 1073.56 1539.35 L 1060.36 1539.45 C 1051.99 1531.04 1044.2 1522.09 1037.02 1512.65 C 1036.69 1522.18 1039.08 1532 1035.16 1538.52 C 1031.37 1540.6 1029.77 1539.87 1025.05 1539.88 C 1024.88 1521.67 1024.86 1503.46 1024.99 1485.24 z"/>
<path transform="translate(0,0)" fill="rgb(15,54,135)" d="M 1375.13 1655.44 C 1380.66 1655.23 1381.78 1654.4 1386.6 1657.62 C 1389.19 1659.35 1395.2 1654.06 1399.85 1654.48 C 1405.14 1654.96 1409.68 1655.37 1413.7 1659.65 C 1421.3 1668.8 1419.13 1688.48 1419 1699.98 L 1406 1700.01 L 1406.04 1679.79 C 1406.15 1671.84 1404.5 1666.41 1395.54 1665.37 C 1383.77 1669.56 1386.92 1689.31 1387.03 1699.98 L 1374.5 1699.96 C 1374.43 1692.66 1373.18 1660.83 1375.13 1655.44 z"/>
<path transform="translate(0,0)" fill="rgb(15,54,135)" d="M 1147.09 1655.19 L 1159.37 1655.26 C 1159.46 1661.12 1157.8 1683.37 1161.58 1686.14 C 1182.4 1701.35 1178.34 1661.61 1178.22 1655.39 L 1190.89 1655.22 L 1190.79 1671.01 L 1190.9 1699.86 C 1186.41 1700.02 1183.83 1700.06 1179.37 1699.66 L 1178.81 1697.22 C 1176.5 1695.55 1170.02 1700.93 1165.03 1700.87 C 1142.01 1700.63 1146.67 1672 1147.09 1655.19 z"/>
<path transform="translate(0,0)" fill="rgb(57,57,58)" d="M 450.117 1485.38 C 456.159 1485.15 462.207 1485.07 468.253 1485.13 C 471.713 1485.2 476.273 1484.56 478.119 1486.49 C 477.413 1506.1 459.747 1491.09 448.182 1498.4 C 446.458 1500.57 446.062 1501.9 445.826 1504.62 C 443.383 1532.77 449.801 1529.44 474.25 1528.93 L 476.436 1529.55 C 477.809 1532.93 477.879 1532.68 477.478 1536.27 C 476.781 1537.36 476.126 1538.9 475.015 1539.14 C 467.484 1540.61 450.631 1541.16 443.736 1537.64 C 430.126 1530.71 430.035 1504.65 437.225 1493.14 C 440.578 1487.77 444.165 1486.63 450.117 1485.38 z"/>
<path transform="translate(0,0)" fill="rgb(57,57,58)" d="M 637.406 1485.4 C 644.635 1485.09 658.774 1483.39 663.839 1487.39 C 661.665 1508.53 635.17 1486.15 630.337 1504.1 C 629.256 1508.12 630.791 1522.88 633.22 1526.28 C 639.649 1530.35 651.117 1528.99 659.25 1528.84 C 660.992 1528.85 660.747 1528.97 662.48 1529.54 C 664.014 1532.92 664.095 1532.67 663.646 1536.31 C 662.817 1537.49 661.728 1539.45 660.012 1539.52 C 651.193 1540.04 635.586 1541.15 627.992 1536.93 C 615.238 1529.85 616.166 1503.11 623.835 1492.56 C 627.816 1487.08 631.264 1486.41 637.406 1485.4 z"/>
<path transform="translate(0,0)" fill="rgb(57,57,58)" d="M 996.458 1485.35 C 1003.35 1484.99 1012.13 1485.23 1019.18 1485.24 L 1016.27 1496.54 C 1011.98 1496.55 994.321 1494.82 990.683 1497.95 C 983.788 1503.87 983.426 1530.72 996.95 1529.27 C 1002.33 1528.7 1010.34 1528.84 1016.74 1528.84 C 1018.38 1531.47 1017.9 1536.41 1017.92 1539.76 C 999.44 1539.85 975.775 1545.09 974.413 1519.63 C 973.326 1499.31 974.215 1487.26 996.458 1485.35 z"/>
<path transform="translate(0,0)" fill="rgb(15,54,135)" d="M 1295.02 1655.15 C 1300.69 1654.69 1315.98 1654 1318.74 1659.65 L 1317.6 1662.62 C 1311.79 1667.74 1303.02 1664.68 1294.08 1666.1 L 1293.39 1667.98 C 1300.81 1677.78 1327.65 1670.21 1319.23 1691.81 C 1317.13 1697.18 1311.43 1698.71 1306.37 1700.43 C 1296.21 1701.48 1290 1699.67 1280.74 1696.5 C 1282.26 1693.56 1283.72 1690.97 1285.38 1688.1 C 1291.15 1686.23 1301.94 1695.99 1308.15 1687.92 C 1307.89 1678.21 1276.19 1686.78 1283.26 1664.95 C 1285.19 1658.97 1289.72 1657.58 1295.02 1655.15 z"/>
<path transform="translate(0,0)" fill="rgb(15,54,135)" d="M 1217.42 1655.09 C 1231.35 1653.79 1234.67 1655.77 1243.95 1665.47 L 1233.77 1671.4 C 1212.91 1649.38 1203.88 1690.11 1223.59 1690.55 C 1227.15 1690.63 1231.53 1686.55 1233.92 1683.96 C 1238.23 1686.13 1242.61 1686.8 1241.87 1691.72 C 1234.85 1700.85 1224.46 1703.74 1213.83 1699.06 C 1207.57 1696.32 1202.72 1691.1 1200.46 1684.65 C 1195.43 1670.15 1204 1659.65 1217.42 1655.09 z"/>
<path transform="translate(0,0)" fill="rgb(15,54,135)" d="M 782.236 1655.1 C 795.727 1653.86 800.133 1655.6 808.831 1665.63 L 798.623 1671.14 C 770.263 1643.32 772.372 1712.26 798.608 1684.41 C 803.963 1686.88 806.318 1686.67 806.443 1692.65 C 805.039 1695.78 803.72 1697.04 800.387 1698.38 C 778.873 1706.99 757.673 1690.87 766.298 1667.79 C 768.731 1661.28 775.865 1657.59 782.236 1655.1 z"/>
<path transform="translate(0,0)" fill="rgb(15,54,135)" d="M 914.13 1655.26 C 928.056 1653.88 933.296 1654.32 942.09 1666.05 C 937.84 1668.24 934.439 1670.98 929.957 1669.08 C 924.252 1666.66 918.11 1663.94 912.528 1667.88 C 905.722 1679.21 915.281 1699.99 932.293 1684.51 C 936.394 1686.32 938.412 1686.4 939.661 1690.82 C 937.177 1700.37 923.707 1701.41 915.409 1700.02 C 901.958 1697.76 895.255 1683.69 898.6 1671.18 C 900.747 1663.14 907.028 1658.78 914.13 1655.26 z"/>
<path transform="translate(0,0)" fill="rgb(15,54,135)" d="M 852.81 1638.18 C 857.442 1637.92 865.115 1637.28 867.991 1641.56 C 866.047 1646.82 859.465 1649.15 854.256 1651.77 L 854.235 1655.34 L 855.611 1656.61 C 858.758 1656.53 860.755 1656.21 863.681 1657.39 C 870.8 1669.02 856.833 1666.36 854.826 1667.57 C 853.047 1673.32 853.889 1689.24 854.006 1696.25 L 853.83 1698.49 L 852.092 1699.92 C 847.704 1700.01 846.516 1700.78 843.291 1698.97 C 839.817 1692.19 841.607 1677.81 841.58 1669.29 C 837.532 1663.13 840.274 1670 835.296 1665.52 C 834.853 1661.64 834.812 1661.4 835.225 1657.56 C 836.978 1656.64 837.981 1656.48 839.94 1656.21 C 846.507 1648.08 838.123 1645.37 852.81 1638.18 z"/>
<path transform="translate(0,0)" fill="rgb(57,57,58)" d="M 1419.49 1485.16 L 1466.77 1485.2 L 1466.53 1496.39 L 1449.04 1496.77 L 1448.84 1522.91 C 1448.89 1526.99 1449.61 1535.9 1447.99 1538.99 C 1444.64 1539.74 1440.42 1540.03 1437.75 1537.5 C 1436.55 1529.16 1437.65 1506.37 1437.88 1496.76 C 1432.29 1496.41 1425.27 1496.48 1419.55 1496.41 C 1419.41 1492.91 1419.51 1488.72 1419.49 1485.16 z"/>
<path transform="translate(0,0)" fill="rgb(15,54,135)" d="M 950.952 1596.27 C 969.174 1596.22 1080.26 1593.96 1089.49 1596.92 C 1091.62 1600.15 1090.93 1598.31 1090.61 1602.97 L 993.499 1603.03 C 985.74 1603.04 957.058 1603.61 950.985 1602.49 C 949.475 1599.56 949.981 1600.43 950.952 1596.27 z"/>
<path transform="translate(0,0)" fill="rgb(15,54,135)" d="M 1252.26 1645.19 C 1269.88 1643.78 1261.43 1647.09 1264.83 1654.7 C 1267.92 1657.01 1269.84 1656.59 1273.54 1656.64 L 1274.85 1658.12 C 1275.27 1661.48 1275.6 1662.06 1274.66 1665.34 C 1271.42 1667.44 1269.16 1666.8 1264.82 1666.96 C 1264.05 1701.44 1270.53 1678.22 1278.49 1698.34 C 1246.01 1710.6 1255.44 1681.41 1251.15 1666.93 C 1249.24 1666.44 1248.29 1666.12 1246.44 1665.41 C 1244.9 1662.45 1245.42 1661.24 1245.89 1657.92 C 1247.66 1655.91 1247.51 1656.33 1250.13 1655.18 L 1250.95 1654.82 C 1252.92 1652.13 1252.39 1650.15 1252.31 1646.66 L 1252.26 1645.19 z"/>
<path transform="translate(0,0)" fill="rgb(57,57,58)" d="M 1321.03 1485.09 C 1324.76 1485.08 1329.15 1484.56 1332.26 1486.3 C 1333.49 1493.55 1333.06 1519.48 1333.16 1528.5 C 1343.04 1529.18 1352.39 1526.67 1359.6 1530.32 C 1361.74 1534.18 1360.91 1534.21 1360.76 1539.41 C 1344.43 1539.88 1330.9 1544.08 1321.17 1528.94 C 1320.64 1514.97 1321 1499.21 1321.03 1485.09 z"/>
<path transform="translate(0,0)" fill="rgb(57,57,58)" d="M 872.704 1485.05 C 876.471 1484.98 878.899 1485.08 882.656 1485.4 C 886.81 1488.89 882.633 1517.35 884.809 1524.34 C 888.363 1535.75 900 1523.47 910.44 1529.85 C 912.765 1533.84 911.851 1533.96 911.675 1539.5 C 862.021 1540.97 872.225 1529.72 872.704 1485.05 z"/>
<path transform="translate(0,0)" fill="rgb(57,57,58)" d="M 671.646 1485.03 C 675.939 1484.92 677.286 1484.94 681.514 1485.51 C 685.652 1490.3 681.035 1517.81 683.567 1524.69 C 687.355 1534.97 699.655 1524.35 709.315 1529.94 C 711.608 1533.74 710.739 1533.89 710.678 1539.19 C 705.743 1539.43 700.805 1539.62 695.866 1539.76 C 679.144 1540.13 670.35 1534.98 671.214 1517.64 C 671.748 1506.93 671.589 1495.77 671.646 1485.03 z"/>
<path transform="translate(0,0)" fill="rgb(15,54,135)" d="M 1004.97 1655.22 C 1009.13 1655.13 1011.7 1654.94 1015.79 1655.6 L 1017.1 1659.32 C 1022.17 1656.86 1024.04 1655.83 1029.52 1655.86 C 1032.81 1657.52 1031.78 1656.3 1033.14 1659.26 C 1032.85 1669.46 1023.93 1667.01 1019.86 1670.32 C 1017.72 1673.92 1017.94 1674.73 1017.61 1679.12 L 1017.52 1680.45 L 1017.42 1699.96 L 1004.77 1700.04 C 1004.68 1685.1 1004.74 1670.16 1004.97 1655.22 z"/>
<path transform="translate(0,0)" fill="rgb(57,57,58)" d="M 597.498 1485.28 L 609.693 1485.27 L 610.002 1539.44 C 606.255 1539.64 601.781 1539.55 597.968 1539.59 C 597.958 1521.89 598.519 1502.83 597.498 1485.28 z"/>
<path transform="translate(0,0)" fill="rgb(57,57,58)" d="M 1472.04 1485.08 C 1475.37 1485 1480.68 1484.46 1483.19 1486.34 C 1484.58 1494.62 1483.86 1529.02 1483.81 1539.71 L 1472.07 1539.47 L 1472.04 1485.08 z"/>
<path transform="translate(0,0)" fill="rgb(15,54,135)" d="M 815.492 1655.28 L 828.007 1655.76 C 828.197 1670.39 828.161 1685.01 827.898 1699.64 L 815.256 1699.8 C 815.13 1685.01 814.84 1670.05 815.492 1655.28 z"/>
<path transform="translate(0,0)" fill="rgb(15,54,135)" d="M 1350.22 1655.32 L 1362.96 1655.32 C 1363.12 1670.01 1362.9 1685.04 1362.84 1699.77 L 1350.27 1699.91 C 1350.12 1685.04 1350.1 1670.18 1350.22 1655.32 z"/>
<path transform="translate(0,0)" fill="rgb(15,54,135)" d="M 876.926 1655.24 L 889.292 1655.36 C 889.634 1670.22 889.623 1685.09 889.26 1699.95 L 876.839 1699.97 C 876.754 1685.06 876.783 1670.15 876.926 1655.24 z"/>
<path transform="translate(0,0)" fill="rgb(217,221,232)" d="M 1082.17 587.116 C 1097.71 586.67 1141.22 608.168 1148.31 621.643 C 1132.89 611.014 1114.41 605.677 1099.1 594.185 C 1094.54 590.758 1087.64 589.042 1082.17 587.116 z"/>
<path transform="translate(0,0)" fill="rgb(197,133,100)" d="M 1384.5 1597.4 C 1402.77 1599.88 1434.37 1594.78 1449.78 1600.27 C 1434.3 1602.66 1402.49 1600.56 1384.24 1602.15 L 1384.5 1597.4 z"/>
<path transform="translate(0,0)" fill="rgb(15,54,135)" d="M 1330.82 1684.67 C 1333.71 1683.75 1336.86 1684.5 1339.03 1686.62 C 1341.2 1688.74 1342.02 1691.88 1341.16 1694.79 C 1340.31 1697.7 1337.92 1699.9 1334.95 1700.51 C 1330.68 1701.39 1326.47 1698.77 1325.37 1694.55 C 1324.26 1690.33 1326.66 1685.99 1330.82 1684.67 z"/>
<path transform="translate(0,0)" fill="rgb(197,133,100)" d="M 658.737 1601.52 C 644.86 1604.13 618.465 1599.78 603.415 1600.65 C 601.334 1600.77 602.825 1599.63 599.506 1600.19 L 600.776 1599.54 L 601.832 1599.97 L 602.248 1599.32 C 617.014 1597.46 640.348 1597.7 655.657 1598.08 C 653.031 1598.74 653.119 1598.21 651.698 1599.67 L 649.117 1600.18 C 652.168 1600.34 656.395 1600.12 658.737 1601.52 z"/>
<path transform="translate(0,0)" fill="rgb(15,54,135)" d="M 880.849 1635.2 C 884.721 1634.03 888.819 1636.15 890.105 1639.98 C 891.391 1643.82 889.402 1647.98 885.61 1649.39 C 883.049 1650.34 880.174 1649.82 878.108 1648.03 C 876.042 1646.24 875.112 1643.47 875.683 1640.8 C 876.253 1638.13 878.233 1635.98 880.849 1635.2 z"/>
<path transform="translate(0,0)" fill="rgb(15,54,135)" d="M 819.295 1635.29 C 822.942 1633.97 826.993 1635.66 828.62 1639.18 C 830.247 1642.7 828.907 1646.88 825.537 1648.8 C 823.086 1650.2 820.059 1650.09 817.709 1648.53 C 815.36 1646.97 814.09 1644.22 814.425 1641.42 C 814.76 1638.62 816.644 1636.25 819.295 1635.29 z"/>
<path transform="translate(0,0)" fill="rgb(15,54,135)" d="M 1352.64 1636.25 C 1356.11 1634.11 1360.66 1635.16 1362.84 1638.61 C 1365.02 1642.06 1364.02 1646.62 1360.59 1648.84 C 1358.34 1650.29 1355.49 1650.42 1353.11 1649.18 C 1350.74 1647.95 1349.21 1645.53 1349.11 1642.86 C 1349.02 1640.18 1350.36 1637.66 1352.64 1636.25 z"/>
</g>
</svg>